<?xml version="1.0" encoding="utf-8"?>
<!-- Generator: Adobe Illustrator 23.0.1, SVG Export Plug-In . SVG Version: 6.00 Build 0)  -->
<svg version="1.1" xmlns="http://www.w3.org/2000/svg" xmlns:xlink="http://www.w3.org/1999/xlink" x="0px" y="0px"
	 viewBox="0 0 1920 1080" style="enable-background:new 0 0 1920 1080;" xml:space="preserve">
<style type="text/css">
	.st0{fill:#171617;}
	.st1{fill:#FFFFFF;}
</style>
<g id="Layer_2">
	<rect x="-4" y="-20" class="st0" width="1990" height="1149"/>
</g>
<g id="Layer_1">
	<g>
		<path class="st1" d="M48.8,113.5L48.8,113.5c-3.5,0-6.3-2.9-6.3-6.3V31.1c0-3.5,2.9-6.3,6.3-6.3h0c3.5,0,6.3,2.9,6.3,6.3v76.1
			C55.1,110.6,52.3,113.5,48.8,113.5z"/>
		<path class="st1" d="M51.9,90.6L51.9,90.6c-1.7,3-5.6,4.1-8.7,2.3l-11.6-6.7c-3-1.7-4.1-5.6-2.3-8.7l0,0c1.7-3,5.6-4.1,8.7-2.3
			l11.6,6.7C52.6,83.6,53.7,87.5,51.9,90.6z"/>
		<path class="st1" d="M47.9,74.1L47.9,74.1c1.7,3,5.6,4.1,8.7,2.3l19.5-11.3c3-1.7,4.1-5.6,2.3-8.7v0c-1.7-3-5.6-4.1-8.7-2.3
			L50.3,65.5C47.2,67.2,46.2,71.1,47.9,74.1z"/>
		<polygon class="st1" points="47.3,39 43.3,39.3 38.5,39.5 43.3,42.2 45,43.2 		"/>
		<path class="st1" d="M37.7,39c3.8-6.7-0.1-14.6-4.8-17.1c-1.3-0.7-4.3-1.8-7.5-1.1c-2.5,0.5-3.8,2.1-5.6,1.6c-2-0.6-2.1-2.9-3-2.9
			c-1.7,0.1-4.4,7.4-2.5,14.6c0.6,2.3,1.9,7.2,6.3,9.7C26,46.7,34.1,45.4,37.7,39z"/>
	</g>
	<g>
		<path class="st1" d="M182.8,32.5L182.8,32.5c-3.5,0-6.3-2.9-6.3-6.3v-76.1c0-3.5,2.9-6.3,6.3-6.3h0c3.5,0,6.3,2.9,6.3,6.3v76.1
			C189.1,29.6,186.3,32.5,182.8,32.5z"/>
		<path class="st1" d="M185.9,9.6L185.9,9.6c-1.7,3-5.6,4.1-8.7,2.3l-11.6-6.7c-3-1.7-4.1-5.6-2.3-8.7v0c1.7-3,5.6-4.1,8.7-2.3
			l11.6,6.7C186.6,2.6,187.7,6.5,185.9,9.6z"/>
		<path class="st1" d="M181.9-6.9L181.9-6.9c1.7,3,5.6,4.1,8.7,2.3l19.5-11.3c3-1.7,4.1-5.6,2.3-8.7l0,0c-1.7-3-5.6-4.1-8.7-2.3
			l-19.5,11.3C181.2-13.8,180.2-9.9,181.9-6.9z"/>
		<polygon class="st1" points="181.3,-42 177.3,-41.7 172.5,-41.5 177.3,-38.8 179,-37.8 		"/>
		<path class="st1" d="M171.7-42c3.8-6.7-0.1-14.6-4.8-17.1c-1.3-0.7-4.3-1.8-7.5-1.1c-2.5,0.5-3.8,2.1-5.6,1.6
			c-2-0.6-2.1-2.9-3-2.9c-1.7,0.1-4.4,7.4-2.5,14.6c0.6,2.3,1.9,7.2,6.3,9.7C160-34.3,168.1-35.6,171.7-42z"/>
	</g>
	<g>
		<path class="st1" d="M182.8,275.5L182.8,275.5c-3.5,0-6.3-2.9-6.3-6.3v-76.1c0-3.5,2.9-6.3,6.3-6.3h0c3.5,0,6.3,2.9,6.3,6.3v76.1
			C189.1,272.6,186.3,275.5,182.8,275.5z"/>
		<path class="st1" d="M185.9,252.6L185.9,252.6c-1.7,3-5.6,4.1-8.7,2.3l-11.6-6.7c-3-1.7-4.1-5.6-2.3-8.7v0c1.7-3,5.6-4.1,8.7-2.3
			l11.6,6.7C186.6,245.6,187.7,249.5,185.9,252.6z"/>
		<path class="st1" d="M181.9,236.1L181.9,236.1c1.7,3,5.6,4.1,8.7,2.3l19.5-11.3c3-1.7,4.1-5.6,2.3-8.7l0,0c-1.7-3-5.6-4.1-8.7-2.3
			l-19.5,11.3C181.2,229.2,180.2,233.1,181.9,236.1z"/>
		<polygon class="st1" points="181.3,201 177.3,201.3 172.5,201.5 177.3,204.2 179,205.2 		"/>
		<path class="st1" d="M171.7,201c3.8-6.7-0.1-14.6-4.8-17.1c-1.3-0.7-4.3-1.8-7.5-1.1c-2.5,0.5-3.8,2.1-5.6,1.6
			c-2-0.6-2.1-2.9-3-2.9c-1.7,0.1-4.4,7.4-2.5,14.6c0.6,2.3,1.9,7.2,6.3,9.7C160,208.7,168.1,207.4,171.7,201z"/>
	</g>
	<g>
		<path class="st1" d="M50.8,456.5L50.8,456.5c-3.5,0-6.3-2.9-6.3-6.3v-76.1c0-3.5,2.9-6.3,6.3-6.3h0c3.5,0,6.3,2.9,6.3,6.3v76.1
			C57.1,453.6,54.3,456.5,50.8,456.5z"/>
		<path class="st1" d="M53.9,433.6L53.9,433.6c-1.7,3-5.6,4.1-8.7,2.3l-11.6-6.7c-3-1.7-4.1-5.6-2.3-8.7h0c1.7-3,5.6-4.1,8.7-2.3
			l11.6,6.7C54.6,426.6,55.7,430.5,53.9,433.6z"/>
		<path class="st1" d="M49.9,417.1L49.9,417.1c1.7,3,5.6,4.1,8.7,2.3l19.5-11.3c3-1.7,4.1-5.6,2.3-8.7l0,0c-1.7-3-5.6-4.1-8.7-2.3
			l-19.5,11.3C49.2,410.2,48.2,414.1,49.9,417.1z"/>
		<polygon class="st1" points="49.3,382 45.3,382.3 40.5,382.5 45.3,385.2 47,386.2 		"/>
		<path class="st1" d="M39.7,382c3.8-6.7-0.1-14.6-4.8-17.1c-1.3-0.7-4.3-1.8-7.5-1.1c-2.5,0.5-3.8,2.1-5.6,1.6
			c-2-0.6-2.1-2.9-3-2.9c-1.7,0.1-4.4,7.4-2.5,14.6c0.6,2.3,1.9,7.2,6.3,9.7C28,389.7,36.1,388.4,39.7,382z"/>
	</g>
	<g>
		<path class="st1" d="M177.8,613.5L177.8,613.5c-3.5,0-6.3-2.9-6.3-6.3v-76.1c0-3.5,2.9-6.3,6.3-6.3h0c3.5,0,6.3,2.9,6.3,6.3v76.1
			C184.1,610.6,181.3,613.5,177.8,613.5z"/>
		<path class="st1" d="M180.9,590.6L180.9,590.6c-1.7,3-5.6,4.1-8.7,2.3l-11.6-6.7c-3-1.7-4.1-5.6-2.3-8.7l0,0
			c1.7-3,5.6-4.1,8.7-2.3l11.6,6.7C181.6,583.6,182.7,587.5,180.9,590.6z"/>
		<path class="st1" d="M176.9,574.1L176.9,574.1c1.7,3,5.6,4.1,8.7,2.3l19.5-11.3c3-1.7,4.1-5.6,2.3-8.7h0c-1.7-3-5.6-4.1-8.7-2.3
			l-19.5,11.3C176.2,567.2,175.2,571.1,176.9,574.1z"/>
		<polygon class="st1" points="176.3,539 172.3,539.3 167.5,539.5 172.3,542.2 174,543.2 		"/>
		<path class="st1" d="M166.7,539c3.8-6.7-0.1-14.6-4.8-17.1c-1.3-0.7-4.3-1.8-7.5-1.1c-2.5,0.5-3.8,2.1-5.6,1.6
			c-2-0.6-2.1-2.9-3-2.9c-1.7,0.1-4.4,7.4-2.5,14.6c0.6,2.3,1.9,7.2,6.3,9.7C155,546.7,163.1,545.4,166.7,539z"/>
	</g>
	<g>
		<path class="st1" d="M52.8,799.5L52.8,799.5c-3.5,0-6.3-2.9-6.3-6.3v-76.1c0-3.5,2.9-6.3,6.3-6.3h0c3.5,0,6.3,2.9,6.3,6.3v76.1
			C59.1,796.6,56.3,799.5,52.8,799.5z"/>
		<path class="st1" d="M55.9,776.6L55.9,776.6c-1.7,3-5.6,4.1-8.7,2.3l-11.6-6.7c-3-1.7-4.1-5.6-2.3-8.7h0c1.7-3,5.6-4.1,8.7-2.3
			l11.6,6.7C56.6,769.6,57.7,773.5,55.9,776.6z"/>
		<path class="st1" d="M51.9,760.1L51.9,760.1c1.7,3,5.6,4.1,8.7,2.3l19.5-11.3c3-1.7,4.1-5.6,2.3-8.7l0,0c-1.7-3-5.6-4.1-8.7-2.3
			l-19.5,11.3C51.2,753.2,50.2,757.1,51.9,760.1z"/>
		<polygon class="st1" points="51.3,725 47.3,725.3 42.5,725.5 47.3,728.2 49,729.2 		"/>
		<path class="st1" d="M41.7,725c3.8-6.7-0.1-14.6-4.8-17.1c-1.3-0.7-4.3-1.8-7.5-1.1c-2.5,0.5-3.8,2.1-5.6,1.6
			c-2-0.6-2.1-2.9-3-2.9c-1.7,0.1-4.4,7.4-2.5,14.6c0.6,2.3,1.9,7.2,6.3,9.7C30,732.7,38.1,731.4,41.7,725z"/>
	</g>
	<g>
		<path class="st1" d="M186.8,946.5L186.8,946.5c-3.5,0-6.3-2.9-6.3-6.3v-76.1c0-3.5,2.9-6.3,6.3-6.3h0c3.5,0,6.3,2.9,6.3,6.3v76.1
			C193.1,943.6,190.3,946.5,186.8,946.5z"/>
		<path class="st1" d="M189.9,923.6L189.9,923.6c-1.7,3-5.6,4.1-8.7,2.3l-11.6-6.7c-3-1.7-4.1-5.6-2.3-8.7l0,0
			c1.7-3,5.6-4.1,8.7-2.3l11.6,6.7C190.6,916.6,191.7,920.5,189.9,923.6z"/>
		<path class="st1" d="M185.9,907.1L185.9,907.1c1.7,3,5.6,4.1,8.7,2.3l19.5-11.3c3-1.7,4.1-5.6,2.3-8.7h0c-1.7-3-5.6-4.1-8.7-2.3
			l-19.5,11.3C185.2,900.2,184.2,904.1,185.9,907.1z"/>
		<polygon class="st1" points="185.3,872 181.3,872.3 176.5,872.5 181.3,875.2 183,876.2 		"/>
		<path class="st1" d="M175.7,872c3.8-6.7-0.1-14.6-4.8-17.1c-1.3-0.7-4.3-1.8-7.5-1.1c-2.5,0.5-3.8,2.1-5.6,1.6
			c-2-0.6-2.1-2.9-3-2.9c-1.7,0.1-4.4,7.4-2.5,14.6c0.6,2.3,1.9,7.2,6.3,9.7C164,879.7,172.1,878.4,175.7,872z"/>
	</g>
	<g>
		<path class="st1" d="M54.8,1116.5L54.8,1116.5c-3.5,0-6.3-2.9-6.3-6.3v-76.1c0-3.5,2.9-6.3,6.3-6.3h0c3.5,0,6.3,2.9,6.3,6.3v76.1
			C61.1,1113.6,58.3,1116.5,54.8,1116.5z"/>
		<path class="st1" d="M57.9,1093.6L57.9,1093.6c-1.7,3-5.6,4.1-8.7,2.3l-11.6-6.7c-3-1.7-4.1-5.6-2.3-8.7h0c1.7-3,5.6-4.1,8.7-2.3
			l11.6,6.7C58.6,1086.6,59.7,1090.5,57.9,1093.6z"/>
		<path class="st1" d="M53.9,1077.1L53.9,1077.1c1.7,3,5.6,4.1,8.7,2.3l19.5-11.3c3-1.7,4.1-5.6,2.3-8.7l0,0c-1.7-3-5.6-4.1-8.7-2.3
			l-19.5,11.3C53.2,1070.2,52.2,1074.1,53.9,1077.1z"/>
		<polygon class="st1" points="53.3,1042 49.3,1042.3 44.5,1042.5 49.3,1045.2 51,1046.2 		"/>
		<path class="st1" d="M43.7,1042c3.8-6.7-0.1-14.6-4.8-17.1c-1.3-0.7-4.3-1.8-7.5-1.1c-2.5,0.5-3.8,2.1-5.6,1.6
			c-2-0.6-2.1-2.9-3-2.9c-1.7,0.1-4.4,7.4-2.5,14.6c0.6,2.3,1.9,7.2,6.3,9.7C32,1049.7,40.1,1048.4,43.7,1042z"/>
	</g>
	<g>
		<path class="st1" d="M295.8,113.5L295.8,113.5c-3.5,0-6.3-2.9-6.3-6.3V31.1c0-3.5,2.9-6.3,6.3-6.3l0,0c3.5,0,6.3,2.9,6.3,6.3v76.1
			C302.1,110.6,299.3,113.5,295.8,113.5z"/>
		<path class="st1" d="M298.9,90.6L298.9,90.6c-1.7,3-5.6,4.1-8.7,2.3l-11.6-6.7c-3-1.7-4.1-5.6-2.3-8.7l0,0c1.7-3,5.6-4.1,8.7-2.3
			l11.6,6.7C299.6,83.6,300.7,87.5,298.9,90.6z"/>
		<path class="st1" d="M294.9,74.1L294.9,74.1c1.7,3,5.6,4.1,8.7,2.3l19.5-11.3c3-1.7,4.1-5.6,2.3-8.7v0c-1.7-3-5.6-4.1-8.7-2.3
			l-19.5,11.3C294.2,67.2,293.2,71.1,294.9,74.1z"/>
		<polygon class="st1" points="294.3,39 290.3,39.3 285.5,39.5 290.3,42.2 292,43.2 		"/>
		<path class="st1" d="M284.7,39c3.8-6.7-0.1-14.6-4.8-17.1c-1.3-0.7-4.3-1.8-7.5-1.1c-2.5,0.5-3.8,2.1-5.6,1.6
			c-2-0.6-2.1-2.9-3-2.9c-1.7,0.1-4.4,7.4-2.5,14.6c0.6,2.3,1.9,7.2,6.3,9.7C273,46.7,281.1,45.4,284.7,39z"/>
	</g>
	<g>
		<path class="st1" d="M429.8,32.5L429.8,32.5c-3.5,0-6.3-2.9-6.3-6.3v-76.1c0-3.5,2.9-6.3,6.3-6.3l0,0c3.5,0,6.3,2.9,6.3,6.3v76.1
			C436.1,29.6,433.3,32.5,429.8,32.5z"/>
		<path class="st1" d="M432.9,9.6L432.9,9.6c-1.7,3-5.6,4.1-8.7,2.3l-11.6-6.7c-3-1.7-4.1-5.6-2.3-8.7l0,0c1.7-3,5.6-4.1,8.7-2.3
			l11.6,6.7C433.6,2.6,434.7,6.5,432.9,9.6z"/>
		<path class="st1" d="M428.9-6.9L428.9-6.9c1.7,3,5.6,4.1,8.7,2.3l19.5-11.3c3-1.7,4.1-5.6,2.3-8.7v0c-1.7-3-5.6-4.1-8.7-2.3
			l-19.5,11.3C428.2-13.8,427.2-9.9,428.9-6.9z"/>
		<polygon class="st1" points="428.3,-42 424.3,-41.7 419.5,-41.5 424.3,-38.8 426,-37.8 		"/>
		<path class="st1" d="M418.7-42c3.8-6.7-0.1-14.6-4.8-17.1c-1.3-0.7-4.3-1.8-7.5-1.1c-2.5,0.5-3.8,2.1-5.6,1.6
			c-2-0.6-2.1-2.9-3-2.9c-1.7,0.1-4.4,7.4-2.5,14.6c0.6,2.3,1.9,7.2,6.3,9.7C407-34.3,415.1-35.6,418.7-42z"/>
	</g>
	<g>
		<path class="st1" d="M429.8,275.5L429.8,275.5c-3.5,0-6.3-2.9-6.3-6.3v-76.1c0-3.5,2.9-6.3,6.3-6.3l0,0c3.5,0,6.3,2.9,6.3,6.3
			v76.1C436.1,272.6,433.3,275.5,429.8,275.5z"/>
		<path class="st1" d="M432.9,252.6L432.9,252.6c-1.7,3-5.6,4.1-8.7,2.3l-11.6-6.7c-3-1.7-4.1-5.6-2.3-8.7l0,0
			c1.7-3,5.6-4.1,8.7-2.3l11.6,6.7C433.6,245.6,434.7,249.5,432.9,252.6z"/>
		<path class="st1" d="M428.9,236.1L428.9,236.1c1.7,3,5.6,4.1,8.7,2.3l19.5-11.3c3-1.7,4.1-5.6,2.3-8.7v0c-1.7-3-5.6-4.1-8.7-2.3
			l-19.5,11.3C428.2,229.2,427.2,233.1,428.9,236.1z"/>
		<polygon class="st1" points="428.3,201 424.3,201.3 419.5,201.5 424.3,204.2 426,205.2 		"/>
		<path class="st1" d="M418.7,201c3.8-6.7-0.1-14.6-4.8-17.1c-1.3-0.7-4.3-1.8-7.5-1.1c-2.5,0.5-3.8,2.1-5.6,1.6
			c-2-0.6-2.1-2.9-3-2.9c-1.7,0.1-4.4,7.4-2.5,14.6c0.6,2.3,1.9,7.2,6.3,9.7C407,208.7,415.1,207.4,418.7,201z"/>
	</g>
	<g>
		<path class="st1" d="M297.8,456.5L297.8,456.5c-3.5,0-6.3-2.9-6.3-6.3v-76.1c0-3.5,2.9-6.3,6.3-6.3l0,0c3.5,0,6.3,2.9,6.3,6.3
			v76.1C304.1,453.6,301.3,456.5,297.8,456.5z"/>
		<path class="st1" d="M300.9,433.6L300.9,433.6c-1.7,3-5.6,4.1-8.7,2.3l-11.6-6.7c-3-1.7-4.1-5.6-2.3-8.7h0c1.7-3,5.6-4.1,8.7-2.3
			l11.6,6.7C301.6,426.6,302.7,430.5,300.9,433.6z"/>
		<path class="st1" d="M296.9,417.1L296.9,417.1c1.7,3,5.6,4.1,8.7,2.3l19.5-11.3c3-1.7,4.1-5.6,2.3-8.7l0,0c-1.7-3-5.6-4.1-8.7-2.3
			l-19.5,11.3C296.2,410.2,295.2,414.1,296.9,417.1z"/>
		<polygon class="st1" points="296.3,382 292.3,382.3 287.5,382.5 292.3,385.2 294,386.2 		"/>
		<path class="st1" d="M286.7,382c3.8-6.7-0.1-14.6-4.8-17.1c-1.3-0.7-4.3-1.8-7.5-1.1c-2.5,0.5-3.8,2.1-5.6,1.6
			c-2-0.6-2.1-2.9-3-2.9c-1.7,0.1-4.4,7.4-2.5,14.6c0.6,2.3,1.9,7.2,6.3,9.7C275,389.7,283.1,388.4,286.7,382z"/>
	</g>
	<g>
		<path class="st1" d="M424.8,613.5L424.8,613.5c-3.5,0-6.3-2.9-6.3-6.3v-76.1c0-3.5,2.9-6.3,6.3-6.3l0,0c3.5,0,6.3,2.9,6.3,6.3
			v76.1C431.1,610.6,428.3,613.5,424.8,613.5z"/>
		<path class="st1" d="M427.9,590.6L427.9,590.6c-1.7,3-5.6,4.1-8.7,2.3l-11.6-6.7c-3-1.7-4.1-5.6-2.3-8.7h0c1.7-3,5.6-4.1,8.7-2.3
			l11.6,6.7C428.6,583.6,429.7,587.5,427.9,590.6z"/>
		<path class="st1" d="M423.9,574.1L423.9,574.1c1.7,3,5.6,4.1,8.7,2.3l19.5-11.3c3-1.7,4.1-5.6,2.3-8.7l0,0c-1.7-3-5.6-4.1-8.7-2.3
			l-19.5,11.3C423.2,567.2,422.2,571.1,423.9,574.1z"/>
		<polygon class="st1" points="423.3,539 419.3,539.3 414.5,539.5 419.3,542.2 421,543.2 		"/>
		<path class="st1" d="M413.7,539c3.8-6.7-0.1-14.6-4.8-17.1c-1.3-0.7-4.3-1.8-7.5-1.1c-2.5,0.5-3.8,2.1-5.6,1.6
			c-2-0.6-2.1-2.9-3-2.9c-1.7,0.1-4.4,7.4-2.5,14.6c0.6,2.3,1.9,7.2,6.3,9.7C402,546.7,410.1,545.4,413.7,539z"/>
	</g>
	<g>
		<path class="st1" d="M299.8,799.5L299.8,799.5c-3.5,0-6.3-2.9-6.3-6.3v-76.1c0-3.5,2.9-6.3,6.3-6.3l0,0c3.5,0,6.3,2.9,6.3,6.3
			v76.1C306.1,796.6,303.3,799.5,299.8,799.5z"/>
		<path class="st1" d="M302.9,776.6L302.9,776.6c-1.7,3-5.6,4.1-8.7,2.3l-11.6-6.7c-3-1.7-4.1-5.6-2.3-8.7h0c1.7-3,5.6-4.1,8.7-2.3
			l11.6,6.7C303.6,769.6,304.7,773.5,302.9,776.6z"/>
		<path class="st1" d="M298.9,760.1L298.9,760.1c1.7,3,5.6,4.1,8.7,2.3l19.5-11.3c3-1.7,4.1-5.6,2.3-8.7l0,0c-1.7-3-5.6-4.1-8.7-2.3
			l-19.5,11.3C298.2,753.2,297.2,757.1,298.9,760.1z"/>
		<polygon class="st1" points="298.3,725 294.3,725.3 289.5,725.5 294.3,728.2 296,729.2 		"/>
		<path class="st1" d="M288.7,725c3.8-6.7-0.1-14.6-4.8-17.1c-1.3-0.7-4.3-1.8-7.5-1.1c-2.5,0.5-3.8,2.1-5.6,1.6
			c-2-0.6-2.1-2.9-3-2.9c-1.7,0.1-4.4,7.4-2.5,14.6c0.6,2.3,1.9,7.2,6.3,9.7C277,732.7,285.1,731.4,288.7,725z"/>
	</g>
	<g>
		<path class="st1" d="M433.8,946.5L433.8,946.5c-3.5,0-6.3-2.9-6.3-6.3v-76.1c0-3.5,2.9-6.3,6.3-6.3l0,0c3.5,0,6.3,2.9,6.3,6.3
			v76.1C440.1,943.6,437.3,946.5,433.8,946.5z"/>
		<path class="st1" d="M436.9,923.6L436.9,923.6c-1.7,3-5.6,4.1-8.7,2.3l-11.6-6.7c-3-1.7-4.1-5.6-2.3-8.7h0c1.7-3,5.6-4.1,8.7-2.3
			l11.6,6.7C437.6,916.6,438.7,920.5,436.9,923.6z"/>
		<path class="st1" d="M432.9,907.1L432.9,907.1c1.7,3,5.6,4.1,8.7,2.3l19.5-11.3c3-1.7,4.1-5.6,2.3-8.7l0,0c-1.7-3-5.6-4.1-8.7-2.3
			l-19.5,11.3C432.2,900.2,431.2,904.1,432.9,907.1z"/>
		<polygon class="st1" points="432.3,872 428.3,872.3 423.5,872.5 428.3,875.2 430,876.2 		"/>
		<path class="st1" d="M422.7,872c3.8-6.7-0.1-14.6-4.8-17.1c-1.3-0.7-4.3-1.8-7.5-1.1c-2.5,0.5-3.8,2.1-5.6,1.6
			c-2-0.6-2.1-2.9-3-2.9c-1.7,0.1-4.4,7.4-2.5,14.6c0.6,2.3,1.9,7.2,6.3,9.7C411,879.7,419.1,878.4,422.7,872z"/>
	</g>
	<g>
		<path class="st1" d="M301.8,1116.5L301.8,1116.5c-3.5,0-6.3-2.9-6.3-6.3v-76.1c0-3.5,2.9-6.3,6.3-6.3l0,0c3.5,0,6.3,2.9,6.3,6.3
			v76.1C308.1,1113.6,305.3,1116.5,301.8,1116.5z"/>
		<path class="st1" d="M304.9,1093.6L304.9,1093.6c-1.7,3-5.6,4.1-8.7,2.3l-11.6-6.7c-3-1.7-4.1-5.6-2.3-8.7h0
			c1.7-3,5.6-4.1,8.7-2.3l11.6,6.7C305.6,1086.6,306.7,1090.5,304.9,1093.6z"/>
		<path class="st1" d="M300.9,1077.1L300.9,1077.1c1.7,3,5.6,4.1,8.7,2.3l19.5-11.3c3-1.7,4.1-5.6,2.3-8.7l0,0
			c-1.7-3-5.6-4.1-8.7-2.3l-19.5,11.3C300.2,1070.2,299.2,1074.1,300.9,1077.1z"/>
		<polygon class="st1" points="300.3,1042 296.3,1042.3 291.5,1042.5 296.3,1045.2 298,1046.2 		"/>
		<path class="st1" d="M290.7,1042c3.8-6.7-0.1-14.6-4.8-17.1c-1.3-0.7-4.3-1.8-7.5-1.1c-2.5,0.5-3.8,2.1-5.6,1.6
			c-2-0.6-2.1-2.9-3-2.9c-1.7,0.1-4.4,7.4-2.5,14.6c0.6,2.3,1.9,7.2,6.3,9.7C279,1049.7,287.1,1048.4,290.7,1042z"/>
	</g>
	<g>
		<path class="st1" d="M538.8,113.5L538.8,113.5c-3.5,0-6.3-2.9-6.3-6.3V31.1c0-3.5,2.9-6.3,6.3-6.3l0,0c3.5,0,6.3,2.9,6.3,6.3v76.1
			C545.1,110.6,542.3,113.5,538.8,113.5z"/>
		<path class="st1" d="M541.9,90.6L541.9,90.6c-1.7,3-5.6,4.1-8.7,2.3l-11.6-6.7c-3-1.7-4.1-5.6-2.3-8.7v0c1.7-3,5.6-4.1,8.7-2.3
			l11.6,6.7C542.6,83.6,543.7,87.5,541.9,90.6z"/>
		<path class="st1" d="M537.9,74.1L537.9,74.1c1.7,3,5.6,4.1,8.7,2.3l19.5-11.3c3-1.7,4.1-5.6,2.3-8.7v0c-1.7-3-5.6-4.1-8.7-2.3
			l-19.5,11.3C537.2,67.2,536.2,71.1,537.9,74.1z"/>
		<polygon class="st1" points="537.3,39 533.3,39.3 528.5,39.5 533.3,42.2 535,43.2 		"/>
		<path class="st1" d="M527.7,39c3.8-6.7-0.1-14.6-4.8-17.1c-1.3-0.7-4.3-1.8-7.5-1.1c-2.5,0.5-3.8,2.1-5.6,1.6
			c-2-0.6-2.1-2.9-3-2.9c-1.7,0.1-4.4,7.4-2.5,14.6c0.6,2.3,1.9,7.2,6.3,9.7C516,46.7,524.1,45.4,527.7,39z"/>
	</g>
	<g>
		<path class="st1" d="M672.8,32.5L672.8,32.5c-3.5,0-6.3-2.9-6.3-6.3v-76.1c0-3.5,2.9-6.3,6.3-6.3l0,0c3.5,0,6.3,2.9,6.3,6.3v76.1
			C679.1,29.6,676.3,32.5,672.8,32.5z"/>
		<path class="st1" d="M675.9,9.6L675.9,9.6c-1.7,3-5.6,4.1-8.7,2.3l-11.6-6.7c-3-1.7-4.1-5.6-2.3-8.7v0c1.7-3,5.6-4.1,8.7-2.3
			l11.6,6.7C676.6,2.6,677.7,6.5,675.9,9.6z"/>
		<path class="st1" d="M671.9-6.9L671.9-6.9c1.7,3,5.6,4.1,8.7,2.3l19.5-11.3c3-1.7,4.1-5.6,2.3-8.7v0c-1.7-3-5.6-4.1-8.7-2.3
			l-19.5,11.3C671.2-13.8,670.2-9.9,671.9-6.9z"/>
		<polygon class="st1" points="671.3,-42 667.3,-41.7 662.5,-41.5 667.3,-38.8 669,-37.8 		"/>
		<path class="st1" d="M661.7-42c3.8-6.7-0.1-14.6-4.8-17.1c-1.3-0.7-4.3-1.8-7.5-1.1c-2.5,0.5-3.8,2.1-5.6,1.6
			c-2-0.6-2.1-2.9-3-2.9c-1.7,0.1-4.4,7.4-2.5,14.6c0.6,2.3,1.9,7.2,6.3,9.7C650-34.3,658.1-35.6,661.7-42z"/>
	</g>
	<g>
		<path class="st1" d="M672.8,275.5L672.8,275.5c-3.5,0-6.3-2.9-6.3-6.3v-76.1c0-3.5,2.9-6.3,6.3-6.3l0,0c3.5,0,6.3,2.9,6.3,6.3
			v76.1C679.1,272.6,676.3,275.5,672.8,275.5z"/>
		<path class="st1" d="M675.9,252.6L675.9,252.6c-1.7,3-5.6,4.1-8.7,2.3l-11.6-6.7c-3-1.7-4.1-5.6-2.3-8.7v0c1.7-3,5.6-4.1,8.7-2.3
			l11.6,6.7C676.6,245.6,677.7,249.5,675.9,252.6z"/>
		<path class="st1" d="M671.9,236.1L671.9,236.1c1.7,3,5.6,4.1,8.7,2.3l19.5-11.3c3-1.7,4.1-5.6,2.3-8.7v0c-1.7-3-5.6-4.1-8.7-2.3
			l-19.5,11.3C671.2,229.2,670.2,233.1,671.9,236.1z"/>
		<polygon class="st1" points="671.3,201 667.3,201.3 662.5,201.5 667.3,204.2 669,205.2 		"/>
		<path class="st1" d="M661.7,201c3.8-6.7-0.1-14.6-4.8-17.1c-1.3-0.7-4.3-1.8-7.5-1.1c-2.5,0.5-3.8,2.1-5.6,1.6
			c-2-0.6-2.1-2.9-3-2.9c-1.7,0.1-4.4,7.4-2.5,14.6c0.6,2.3,1.9,7.2,6.3,9.7C650,208.7,658.1,207.4,661.7,201z"/>
	</g>
	<g>
		<path class="st1" d="M540.8,456.5L540.8,456.5c-3.5,0-6.3-2.9-6.3-6.3v-76.1c0-3.5,2.9-6.3,6.3-6.3l0,0c3.5,0,6.3,2.9,6.3,6.3
			v76.1C547.1,453.6,544.3,456.5,540.8,456.5z"/>
		<path class="st1" d="M543.9,433.6L543.9,433.6c-1.7,3-5.6,4.1-8.7,2.3l-11.6-6.7c-3-1.7-4.1-5.6-2.3-8.7l0,0
			c1.7-3,5.6-4.1,8.7-2.3l11.6,6.7C544.6,426.6,545.7,430.5,543.9,433.6z"/>
		<path class="st1" d="M539.9,417.1L539.9,417.1c1.7,3,5.6,4.1,8.7,2.3l19.5-11.3c3-1.7,4.1-5.6,2.3-8.7l0,0c-1.7-3-5.6-4.1-8.7-2.3
			l-19.5,11.3C539.2,410.2,538.2,414.1,539.9,417.1z"/>
		<polygon class="st1" points="539.3,382 535.3,382.3 530.5,382.5 535.3,385.2 537,386.2 		"/>
		<path class="st1" d="M529.7,382c3.8-6.7-0.1-14.6-4.8-17.1c-1.3-0.7-4.3-1.8-7.5-1.1c-2.5,0.5-3.8,2.1-5.6,1.6
			c-2-0.6-2.1-2.9-3-2.9c-1.7,0.1-4.4,7.4-2.5,14.6c0.6,2.3,1.9,7.2,6.3,9.7C518,389.7,526.1,388.4,529.7,382z"/>
	</g>
	<g>
		<path class="st1" d="M667.8,613.5L667.8,613.5c-3.5,0-6.3-2.9-6.3-6.3v-76.1c0-3.5,2.9-6.3,6.3-6.3l0,0c3.5,0,6.3,2.9,6.3,6.3
			v76.1C674.1,610.6,671.3,613.5,667.8,613.5z"/>
		<path class="st1" d="M670.9,590.6L670.9,590.6c-1.7,3-5.6,4.1-8.7,2.3l-11.6-6.7c-3-1.7-4.1-5.6-2.3-8.7l0,0
			c1.7-3,5.6-4.1,8.7-2.3l11.6,6.7C671.6,583.6,672.7,587.5,670.9,590.6z"/>
		<path class="st1" d="M666.9,574.1L666.9,574.1c1.7,3,5.6,4.1,8.7,2.3l19.5-11.3c3-1.7,4.1-5.6,2.3-8.7l0,0c-1.7-3-5.6-4.1-8.7-2.3
			l-19.5,11.3C666.2,567.2,665.2,571.1,666.9,574.1z"/>
		<polygon class="st1" points="666.3,539 662.3,539.3 657.5,539.5 662.3,542.2 664,543.2 		"/>
		<path class="st1" d="M656.7,539c3.8-6.7-0.1-14.6-4.8-17.1c-1.3-0.7-4.3-1.8-7.5-1.1c-2.5,0.5-3.8,2.1-5.6,1.6
			c-2-0.6-2.1-2.9-3-2.9c-1.7,0.1-4.4,7.4-2.5,14.6c0.6,2.3,1.9,7.2,6.3,9.7C645,546.7,653.1,545.4,656.7,539z"/>
	</g>
	<g>
		<path class="st1" d="M542.8,799.5L542.8,799.5c-3.5,0-6.3-2.9-6.3-6.3v-76.1c0-3.5,2.9-6.3,6.3-6.3l0,0c3.5,0,6.3,2.9,6.3,6.3
			v76.1C549.1,796.6,546.3,799.5,542.8,799.5z"/>
		<path class="st1" d="M545.9,776.6L545.9,776.6c-1.7,3-5.6,4.1-8.7,2.3l-11.6-6.7c-3-1.7-4.1-5.6-2.3-8.7l0,0
			c1.7-3,5.6-4.1,8.7-2.3l11.6,6.7C546.6,769.6,547.7,773.5,545.9,776.6z"/>
		<path class="st1" d="M541.9,760.1L541.9,760.1c1.7,3,5.6,4.1,8.7,2.3l19.5-11.3c3-1.7,4.1-5.6,2.3-8.7l0,0c-1.7-3-5.6-4.1-8.7-2.3
			l-19.5,11.3C541.2,753.2,540.2,757.1,541.9,760.1z"/>
		<polygon class="st1" points="541.3,725 537.3,725.3 532.5,725.5 537.3,728.2 539,729.2 		"/>
		<path class="st1" d="M531.7,725c3.8-6.7-0.1-14.6-4.8-17.1c-1.3-0.7-4.3-1.8-7.5-1.1c-2.5,0.5-3.8,2.1-5.6,1.6
			c-2-0.6-2.1-2.9-3-2.9c-1.7,0.1-4.4,7.4-2.5,14.6c0.6,2.3,1.9,7.2,6.3,9.7C520,732.7,528.1,731.4,531.7,725z"/>
	</g>
	<g>
		<path class="st1" d="M676.8,946.5L676.8,946.5c-3.5,0-6.3-2.9-6.3-6.3v-76.1c0-3.5,2.9-6.3,6.3-6.3l0,0c3.5,0,6.3,2.9,6.3,6.3
			v76.1C683.1,943.6,680.3,946.5,676.8,946.5z"/>
		<path class="st1" d="M679.9,923.6L679.9,923.6c-1.7,3-5.6,4.1-8.7,2.3l-11.6-6.7c-3-1.7-4.1-5.6-2.3-8.7l0,0
			c1.7-3,5.6-4.1,8.7-2.3l11.6,6.7C680.6,916.6,681.7,920.5,679.9,923.6z"/>
		<path class="st1" d="M675.9,907.1L675.9,907.1c1.7,3,5.6,4.1,8.7,2.3l19.5-11.3c3-1.7,4.1-5.6,2.3-8.7l0,0c-1.7-3-5.6-4.1-8.7-2.3
			l-19.5,11.3C675.2,900.2,674.2,904.1,675.9,907.1z"/>
		<polygon class="st1" points="675.3,872 671.3,872.3 666.5,872.5 671.3,875.2 673,876.2 		"/>
		<path class="st1" d="M665.7,872c3.8-6.7-0.1-14.6-4.8-17.1c-1.3-0.7-4.3-1.8-7.5-1.1c-2.5,0.5-3.8,2.1-5.6,1.6
			c-2-0.6-2.1-2.9-3-2.9c-1.7,0.1-4.4,7.4-2.5,14.6c0.6,2.3,1.9,7.2,6.3,9.7C654,879.7,662.1,878.4,665.7,872z"/>
	</g>
	<g>
		<path class="st1" d="M544.8,1116.5L544.8,1116.5c-3.5,0-6.3-2.9-6.3-6.3v-76.1c0-3.5,2.9-6.3,6.3-6.3l0,0c3.5,0,6.3,2.9,6.3,6.3
			v76.1C551.1,1113.6,548.3,1116.5,544.8,1116.5z"/>
		<path class="st1" d="M547.9,1093.6L547.9,1093.6c-1.7,3-5.6,4.1-8.7,2.3l-11.6-6.7c-3-1.7-4.1-5.6-2.3-8.7l0,0
			c1.7-3,5.6-4.1,8.7-2.3l11.6,6.7C548.6,1086.6,549.7,1090.5,547.9,1093.6z"/>
		<path class="st1" d="M543.9,1077.1L543.9,1077.1c1.7,3,5.6,4.1,8.7,2.3l19.5-11.3c3-1.7,4.1-5.6,2.3-8.7l0,0
			c-1.7-3-5.6-4.1-8.7-2.3l-19.5,11.3C543.2,1070.2,542.2,1074.1,543.9,1077.1z"/>
		<polygon class="st1" points="543.3,1042 539.3,1042.3 534.5,1042.5 539.3,1045.2 541,1046.2 		"/>
		<path class="st1" d="M533.7,1042c3.8-6.7-0.1-14.6-4.8-17.1c-1.3-0.7-4.3-1.8-7.5-1.1c-2.5,0.5-3.8,2.1-5.6,1.6
			c-2-0.6-2.1-2.9-3-2.9c-1.7,0.1-4.4,7.4-2.5,14.6c0.6,2.3,1.9,7.2,6.3,9.7C522,1049.7,530.1,1048.4,533.7,1042z"/>
	</g>
	<g>
		<path class="st1" d="M785.8,113.5L785.8,113.5c-3.5,0-6.3-2.9-6.3-6.3V31.1c0-3.5,2.9-6.3,6.3-6.3l0,0c3.5,0,6.3,2.9,6.3,6.3v76.1
			C792.1,110.6,789.3,113.5,785.8,113.5z"/>
		<path class="st1" d="M788.9,90.6L788.9,90.6c-1.7,3-5.6,4.1-8.7,2.3l-11.6-6.7c-3-1.7-4.1-5.6-2.3-8.7v0c1.7-3,5.6-4.1,8.7-2.3
			l11.6,6.7C789.6,83.6,790.7,87.5,788.9,90.6z"/>
		<path class="st1" d="M784.9,74.1L784.9,74.1c1.7,3,5.6,4.1,8.7,2.3l19.5-11.3c3-1.7,4.1-5.6,2.3-8.7v0c-1.7-3-5.6-4.1-8.7-2.3
			l-19.5,11.3C784.2,67.2,783.2,71.1,784.9,74.1z"/>
		<polygon class="st1" points="784.3,39 780.3,39.3 775.5,39.5 780.3,42.2 782,43.2 		"/>
		<path class="st1" d="M774.7,39c3.8-6.7-0.1-14.6-4.8-17.1c-1.3-0.7-4.3-1.8-7.5-1.1c-2.5,0.5-3.8,2.1-5.6,1.6
			c-2-0.6-2.1-2.9-3-2.9c-1.7,0.1-4.4,7.4-2.5,14.6c0.6,2.3,1.9,7.2,6.3,9.7C763,46.7,771.1,45.4,774.7,39z"/>
	</g>
	<g>
		<path class="st1" d="M919.8,32.5L919.8,32.5c-3.5,0-6.3-2.9-6.3-6.3v-76.1c0-3.5,2.9-6.3,6.3-6.3l0,0c3.5,0,6.3,2.9,6.3,6.3v76.1
			C926.1,29.6,923.3,32.5,919.8,32.5z"/>
		<path class="st1" d="M922.9,9.6L922.9,9.6c-1.7,3-5.6,4.1-8.7,2.3l-11.6-6.7c-3-1.7-4.1-5.6-2.3-8.7v0c1.7-3,5.6-4.1,8.7-2.3
			l11.6,6.7C923.6,2.6,924.7,6.5,922.9,9.6z"/>
		<path class="st1" d="M918.9-6.9L918.9-6.9c1.7,3,5.6,4.1,8.7,2.3l19.5-11.3c3-1.7,4.1-5.6,2.3-8.7v0c-1.7-3-5.6-4.1-8.7-2.3
			l-19.5,11.3C918.2-13.8,917.2-9.9,918.9-6.9z"/>
		<polygon class="st1" points="918.3,-42 914.3,-41.7 909.5,-41.5 914.3,-38.8 916,-37.8 		"/>
		<path class="st1" d="M908.7-42c3.8-6.7-0.1-14.6-4.8-17.1c-1.3-0.7-4.3-1.8-7.5-1.1c-2.5,0.5-3.8,2.1-5.6,1.6
			c-2-0.6-2.1-2.9-3-2.9c-1.7,0.1-4.4,7.4-2.5,14.6c0.6,2.3,1.9,7.2,6.3,9.7C897-34.3,905.1-35.6,908.7-42z"/>
	</g>
	<g>
		<path class="st1" d="M919.8,275.5L919.8,275.5c-3.5,0-6.3-2.9-6.3-6.3v-76.1c0-3.5,2.9-6.3,6.3-6.3l0,0c3.5,0,6.3,2.9,6.3,6.3
			v76.1C926.1,272.6,923.3,275.5,919.8,275.5z"/>
		<path class="st1" d="M922.9,252.6L922.9,252.6c-1.7,3-5.6,4.1-8.7,2.3l-11.6-6.7c-3-1.7-4.1-5.6-2.3-8.7v0c1.7-3,5.6-4.1,8.7-2.3
			l11.6,6.7C923.6,245.6,924.7,249.5,922.9,252.6z"/>
		<path class="st1" d="M918.9,236.1L918.9,236.1c1.7,3,5.6,4.1,8.7,2.3l19.5-11.3c3-1.7,4.1-5.6,2.3-8.7v0c-1.7-3-5.6-4.1-8.7-2.3
			l-19.5,11.3C918.2,229.2,917.2,233.1,918.9,236.1z"/>
		<polygon class="st1" points="918.3,201 914.3,201.3 909.5,201.5 914.3,204.2 916,205.2 		"/>
		<path class="st1" d="M908.7,201c3.8-6.7-0.1-14.6-4.8-17.1c-1.3-0.7-4.3-1.8-7.5-1.1c-2.5,0.5-3.8,2.1-5.6,1.6
			c-2-0.6-2.1-2.9-3-2.9c-1.7,0.1-4.4,7.4-2.5,14.6c0.6,2.3,1.9,7.2,6.3,9.7C897,208.7,905.1,207.4,908.7,201z"/>
	</g>
	<g>
		<path class="st1" d="M787.8,456.5L787.8,456.5c-3.5,0-6.3-2.9-6.3-6.3v-76.1c0-3.5,2.9-6.3,6.3-6.3l0,0c3.5,0,6.3,2.9,6.3,6.3
			v76.1C794.1,453.6,791.3,456.5,787.8,456.5z"/>
		<path class="st1" d="M790.9,433.6L790.9,433.6c-1.7,3-5.6,4.1-8.7,2.3l-11.6-6.7c-3-1.7-4.1-5.6-2.3-8.7l0,0
			c1.7-3,5.6-4.1,8.7-2.3l11.6,6.7C791.6,426.6,792.7,430.5,790.9,433.6z"/>
		<path class="st1" d="M786.9,417.1L786.9,417.1c1.7,3,5.6,4.1,8.7,2.3l19.5-11.3c3-1.7,4.1-5.6,2.3-8.7l0,0c-1.7-3-5.6-4.1-8.7-2.3
			l-19.5,11.3C786.2,410.2,785.2,414.1,786.9,417.1z"/>
		<polygon class="st1" points="786.3,382 782.3,382.3 777.5,382.5 782.3,385.2 784,386.2 		"/>
		<path class="st1" d="M776.7,382c3.8-6.7-0.1-14.6-4.8-17.1c-1.3-0.7-4.3-1.8-7.5-1.1c-2.5,0.5-3.8,2.1-5.6,1.6
			c-2-0.6-2.1-2.9-3-2.9c-1.7,0.1-4.4,7.4-2.5,14.6c0.6,2.3,1.9,7.2,6.3,9.7C765,389.7,773.1,388.4,776.7,382z"/>
	</g>
	<g>
		<path class="st1" d="M914.8,613.5L914.8,613.5c-3.5,0-6.3-2.9-6.3-6.3v-76.1c0-3.5,2.9-6.3,6.3-6.3l0,0c3.5,0,6.3,2.9,6.3,6.3
			v76.1C921.1,610.6,918.3,613.5,914.8,613.5z"/>
		<path class="st1" d="M917.9,590.6L917.9,590.6c-1.7,3-5.6,4.1-8.7,2.3l-11.6-6.7c-3-1.7-4.1-5.6-2.3-8.7l0,0
			c1.7-3,5.6-4.1,8.7-2.3l11.6,6.7C918.6,583.6,919.7,587.5,917.9,590.6z"/>
		<path class="st1" d="M913.9,574.1L913.9,574.1c1.7,3,5.6,4.1,8.7,2.3l19.5-11.3c3-1.7,4.1-5.6,2.3-8.7l0,0c-1.7-3-5.6-4.1-8.7-2.3
			l-19.5,11.3C913.2,567.2,912.2,571.1,913.9,574.1z"/>
		<polygon class="st1" points="913.3,539 909.3,539.3 904.5,539.5 909.3,542.2 911,543.2 		"/>
		<path class="st1" d="M903.7,539c3.8-6.7-0.1-14.6-4.8-17.1c-1.3-0.7-4.3-1.8-7.5-1.1c-2.5,0.5-3.8,2.1-5.6,1.6
			c-2-0.6-2.1-2.9-3-2.9c-1.7,0.1-4.4,7.4-2.5,14.6c0.6,2.3,1.9,7.2,6.3,9.7C892,546.7,900.1,545.4,903.7,539z"/>
	</g>
	<g>
		<path class="st1" d="M789.8,799.5L789.8,799.5c-3.5,0-6.3-2.9-6.3-6.3v-76.1c0-3.5,2.9-6.3,6.3-6.3l0,0c3.5,0,6.3,2.9,6.3,6.3
			v76.1C796.1,796.6,793.3,799.5,789.8,799.5z"/>
		<path class="st1" d="M792.9,776.6L792.9,776.6c-1.7,3-5.6,4.1-8.7,2.3l-11.6-6.7c-3-1.7-4.1-5.6-2.3-8.7l0,0
			c1.7-3,5.6-4.1,8.7-2.3l11.6,6.7C793.6,769.6,794.7,773.5,792.9,776.6z"/>
		<path class="st1" d="M788.9,760.1L788.9,760.1c1.7,3,5.6,4.1,8.7,2.3l19.5-11.3c3-1.7,4.1-5.6,2.3-8.7l0,0c-1.7-3-5.6-4.1-8.7-2.3
			l-19.5,11.3C788.2,753.2,787.2,757.1,788.9,760.1z"/>
		<polygon class="st1" points="788.3,725 784.3,725.3 779.5,725.5 784.3,728.2 786,729.2 		"/>
		<path class="st1" d="M778.7,725c3.8-6.7-0.1-14.6-4.8-17.1c-1.3-0.7-4.3-1.8-7.5-1.1c-2.5,0.5-3.8,2.1-5.6,1.6
			c-2-0.6-2.1-2.9-3-2.9c-1.7,0.1-4.4,7.4-2.5,14.6c0.6,2.3,1.9,7.2,6.3,9.7C767,732.7,775.1,731.4,778.7,725z"/>
	</g>
	<g>
		<path class="st1" d="M923.8,946.5L923.8,946.5c-3.5,0-6.3-2.9-6.3-6.3v-76.1c0-3.5,2.9-6.3,6.3-6.3l0,0c3.5,0,6.3,2.9,6.3,6.3
			v76.1C930.1,943.6,927.3,946.5,923.8,946.5z"/>
		<path class="st1" d="M926.9,923.6L926.9,923.6c-1.7,3-5.6,4.1-8.7,2.3l-11.6-6.7c-3-1.7-4.1-5.6-2.3-8.7l0,0
			c1.7-3,5.6-4.1,8.7-2.3l11.6,6.7C927.6,916.6,928.7,920.5,926.9,923.6z"/>
		<path class="st1" d="M922.9,907.1L922.9,907.1c1.7,3,5.6,4.1,8.7,2.3l19.5-11.3c3-1.7,4.1-5.6,2.3-8.7l0,0c-1.7-3-5.6-4.1-8.7-2.3
			l-19.5,11.3C922.2,900.2,921.2,904.1,922.9,907.1z"/>
		<polygon class="st1" points="922.3,872 918.3,872.3 913.5,872.5 918.3,875.2 920,876.2 		"/>
		<path class="st1" d="M912.7,872c3.8-6.7-0.1-14.6-4.8-17.1c-1.3-0.7-4.3-1.8-7.5-1.1c-2.5,0.5-3.8,2.1-5.6,1.6
			c-2-0.6-2.1-2.9-3-2.9c-1.7,0.1-4.4,7.4-2.5,14.6c0.6,2.3,1.9,7.2,6.3,9.7C901,879.7,909.1,878.4,912.7,872z"/>
	</g>
	<g>
		<path class="st1" d="M791.8,1116.5L791.8,1116.5c-3.5,0-6.3-2.9-6.3-6.3v-76.1c0-3.5,2.9-6.3,6.3-6.3l0,0c3.5,0,6.3,2.9,6.3,6.3
			v76.1C798.1,1113.6,795.3,1116.5,791.8,1116.5z"/>
		<path class="st1" d="M794.9,1093.6L794.9,1093.6c-1.7,3-5.6,4.1-8.7,2.3l-11.6-6.7c-3-1.7-4.1-5.6-2.3-8.7l0,0
			c1.7-3,5.6-4.1,8.7-2.3l11.6,6.7C795.6,1086.6,796.7,1090.5,794.9,1093.6z"/>
		<path class="st1" d="M790.9,1077.1L790.9,1077.1c1.7,3,5.6,4.1,8.7,2.3l19.5-11.3c3-1.7,4.1-5.6,2.3-8.7l0,0
			c-1.7-3-5.6-4.1-8.7-2.3l-19.5,11.3C790.2,1070.2,789.2,1074.1,790.9,1077.1z"/>
		<polygon class="st1" points="790.3,1042 786.3,1042.3 781.5,1042.5 786.3,1045.2 788,1046.2 		"/>
		<path class="st1" d="M780.7,1042c3.8-6.7-0.1-14.6-4.8-17.1c-1.3-0.7-4.3-1.8-7.5-1.1c-2.5,0.5-3.8,2.1-5.6,1.6
			c-2-0.6-2.1-2.9-3-2.9c-1.7,0.1-4.4,7.4-2.5,14.6c0.6,2.3,1.9,7.2,6.3,9.7C769,1049.7,777.1,1048.4,780.7,1042z"/>
	</g>
	<g>
		<path class="st1" d="M1031.8,118.5L1031.8,118.5c-3.5,0-6.3-2.9-6.3-6.3V36.1c0-3.5,2.9-6.3,6.3-6.3l0,0c3.5,0,6.3,2.9,6.3,6.3
			v76.1C1038.1,115.6,1035.3,118.5,1031.8,118.5z"/>
		<path class="st1" d="M1034.9,95.6L1034.9,95.6c-1.7,3-5.6,4.1-8.7,2.3l-11.6-6.7c-3-1.7-4.1-5.6-2.3-8.7v0c1.7-3,5.6-4.1,8.7-2.3
			l11.6,6.7C1035.6,88.6,1036.7,92.5,1034.9,95.6z"/>
		<path class="st1" d="M1030.9,79.1L1030.9,79.1c1.7,3,5.6,4.1,8.7,2.3l19.5-11.3c3-1.7,4.1-5.6,2.3-8.7v0c-1.7-3-5.6-4.1-8.7-2.3
			l-19.5,11.3C1030.2,72.2,1029.2,76.1,1030.9,79.1z"/>
		<polygon class="st1" points="1030.3,44 1026.3,44.3 1021.5,44.5 1026.3,47.2 1028,48.2 		"/>
		<path class="st1" d="M1020.7,44c3.8-6.7-0.1-14.6-4.8-17.1c-1.3-0.7-4.3-1.8-7.5-1.1c-2.5,0.5-3.8,2.1-5.6,1.6
			c-2-0.6-2.1-2.9-3-2.9c-1.7,0.1-4.4,7.4-2.5,14.6c0.6,2.3,1.9,7.2,6.3,9.7C1009,51.7,1017.1,50.4,1020.7,44z"/>
	</g>
	<g>
		<path class="st1" d="M1165.8,37.5L1165.8,37.5c-3.5,0-6.3-2.9-6.3-6.3v-76.1c0-3.5,2.9-6.3,6.3-6.3l0,0c3.5,0,6.3,2.9,6.3,6.3
			v76.1C1172.1,34.6,1169.3,37.5,1165.8,37.5z"/>
		<path class="st1" d="M1168.9,14.6L1168.9,14.6c-1.7,3-5.6,4.1-8.7,2.3l-11.6-6.7c-3-1.7-4.1-5.6-2.3-8.7v0c1.7-3,5.6-4.1,8.7-2.3
			l11.6,6.7C1169.6,7.6,1170.7,11.5,1168.9,14.6z"/>
		<path class="st1" d="M1164.9-1.9L1164.9-1.9c1.7,3,5.6,4.1,8.7,2.3l19.5-11.3c3-1.7,4.1-5.6,2.3-8.7v0c-1.7-3-5.6-4.1-8.7-2.3
			l-19.5,11.3C1164.2-8.8,1163.2-4.9,1164.9-1.9z"/>
		<polygon class="st1" points="1164.3,-37 1160.3,-36.7 1155.5,-36.5 1160.3,-33.8 1162,-32.8 		"/>
		<path class="st1" d="M1154.7-37c3.8-6.7-0.1-14.6-4.8-17.1c-1.3-0.7-4.3-1.8-7.5-1.1c-2.5,0.5-3.8,2.1-5.6,1.6
			c-2-0.6-2.1-2.9-3-2.9c-1.7,0.1-4.4,7.4-2.5,14.6c0.6,2.3,1.9,7.2,6.3,9.7C1143-29.3,1151.1-30.6,1154.7-37z"/>
	</g>
	<g>
		<path class="st1" d="M1165.8,280.5L1165.8,280.5c-3.5,0-6.3-2.9-6.3-6.3v-76.1c0-3.5,2.9-6.3,6.3-6.3l0,0c3.5,0,6.3,2.9,6.3,6.3
			v76.1C1172.1,277.6,1169.3,280.5,1165.8,280.5z"/>
		<path class="st1" d="M1168.9,257.6L1168.9,257.6c-1.7,3-5.6,4.1-8.7,2.3l-11.6-6.7c-3-1.7-4.1-5.6-2.3-8.7v0
			c1.7-3,5.6-4.1,8.7-2.3l11.6,6.7C1169.6,250.6,1170.7,254.5,1168.9,257.6z"/>
		<path class="st1" d="M1164.9,241.1L1164.9,241.1c1.7,3,5.6,4.1,8.7,2.3l19.5-11.3c3-1.7,4.1-5.6,2.3-8.7v0c-1.7-3-5.6-4.1-8.7-2.3
			l-19.5,11.3C1164.2,234.2,1163.2,238.1,1164.9,241.1z"/>
		<polygon class="st1" points="1164.3,206 1160.3,206.3 1155.5,206.5 1160.3,209.2 1162,210.2 		"/>
		<path class="st1" d="M1154.7,206c3.8-6.7-0.1-14.6-4.8-17.1c-1.3-0.7-4.3-1.8-7.5-1.1c-2.5,0.5-3.8,2.1-5.6,1.6
			c-2-0.6-2.1-2.9-3-2.9c-1.7,0.1-4.4,7.4-2.5,14.6c0.6,2.3,1.9,7.2,6.3,9.7C1143,213.7,1151.1,212.4,1154.7,206z"/>
	</g>
	<g>
		<path class="st1" d="M1033.8,461.5L1033.8,461.5c-3.5,0-6.3-2.9-6.3-6.3v-76.1c0-3.5,2.9-6.3,6.3-6.3l0,0c3.5,0,6.3,2.9,6.3,6.3
			v76.1C1040.1,458.6,1037.3,461.5,1033.8,461.5z"/>
		<path class="st1" d="M1036.9,438.6L1036.9,438.6c-1.7,3-5.6,4.1-8.7,2.3l-11.6-6.7c-3-1.7-4.1-5.6-2.3-8.7l0,0
			c1.7-3,5.6-4.1,8.7-2.3l11.6,6.7C1037.6,431.6,1038.7,435.5,1036.9,438.6z"/>
		<path class="st1" d="M1032.9,422.1L1032.9,422.1c1.7,3,5.6,4.1,8.7,2.3l19.5-11.3c3-1.7,4.1-5.6,2.3-8.7l0,0
			c-1.7-3-5.6-4.1-8.7-2.3l-19.5,11.3C1032.2,415.2,1031.2,419.1,1032.9,422.1z"/>
		<polygon class="st1" points="1032.3,387 1028.3,387.3 1023.5,387.5 1028.3,390.2 1030,391.2 		"/>
		<path class="st1" d="M1022.7,387c3.8-6.7-0.1-14.6-4.8-17.1c-1.3-0.7-4.3-1.8-7.5-1.1c-2.5,0.5-3.8,2.1-5.6,1.6
			c-2-0.6-2.1-2.9-3-2.9c-1.7,0.1-4.4,7.4-2.5,14.6c0.6,2.3,1.9,7.2,6.3,9.7C1011,394.7,1019.1,393.4,1022.7,387z"/>
	</g>
	<g>
		<path class="st1" d="M1160.8,618.5L1160.8,618.5c-3.5,0-6.3-2.9-6.3-6.3v-76.1c0-3.5,2.9-6.3,6.3-6.3l0,0c3.5,0,6.3,2.9,6.3,6.3
			v76.1C1167.1,615.6,1164.3,618.5,1160.8,618.5z"/>
		<path class="st1" d="M1163.9,595.6L1163.9,595.6c-1.7,3-5.6,4.1-8.7,2.3l-11.6-6.7c-3-1.7-4.1-5.6-2.3-8.7l0,0
			c1.7-3,5.6-4.1,8.7-2.3l11.6,6.7C1164.6,588.6,1165.7,592.5,1163.9,595.6z"/>
		<path class="st1" d="M1159.9,579.1L1159.9,579.1c1.7,3,5.6,4.1,8.7,2.3l19.5-11.3c3-1.7,4.1-5.6,2.3-8.7l0,0
			c-1.7-3-5.6-4.1-8.7-2.3l-19.5,11.3C1159.2,572.2,1158.2,576.1,1159.9,579.1z"/>
		<polygon class="st1" points="1159.3,544 1155.3,544.3 1150.5,544.5 1155.3,547.2 1157,548.2 		"/>
		<path class="st1" d="M1149.7,544c3.8-6.7-0.1-14.6-4.8-17.1c-1.3-0.7-4.3-1.8-7.5-1.1c-2.5,0.5-3.8,2.1-5.6,1.6
			c-2-0.6-2.1-2.9-3-2.9c-1.7,0.1-4.4,7.4-2.5,14.6c0.6,2.3,1.9,7.2,6.3,9.7C1138,551.7,1146.1,550.4,1149.7,544z"/>
	</g>
	<g>
		<path class="st1" d="M1035.8,804.5L1035.8,804.5c-3.5,0-6.3-2.9-6.3-6.3v-76.1c0-3.5,2.9-6.3,6.3-6.3l0,0c3.5,0,6.3,2.9,6.3,6.3
			v76.1C1042.1,801.6,1039.3,804.5,1035.8,804.5z"/>
		<path class="st1" d="M1038.9,781.6L1038.9,781.6c-1.7,3-5.6,4.1-8.7,2.3l-11.6-6.7c-3-1.7-4.1-5.6-2.3-8.7l0,0
			c1.7-3,5.6-4.1,8.7-2.3l11.6,6.7C1039.6,774.6,1040.7,778.5,1038.9,781.6z"/>
		<path class="st1" d="M1034.9,765.1L1034.9,765.1c1.7,3,5.6,4.1,8.7,2.3l19.5-11.3c3-1.7,4.1-5.6,2.3-8.7l0,0
			c-1.7-3-5.6-4.1-8.7-2.3l-19.5,11.3C1034.2,758.2,1033.2,762.1,1034.9,765.1z"/>
		<polygon class="st1" points="1034.3,730 1030.3,730.3 1025.5,730.5 1030.3,733.2 1032,734.2 		"/>
		<path class="st1" d="M1024.7,730c3.8-6.7-0.1-14.6-4.8-17.1c-1.3-0.7-4.3-1.8-7.5-1.1c-2.5,0.5-3.8,2.1-5.6,1.6
			c-2-0.6-2.1-2.9-3-2.9c-1.7,0.1-4.4,7.4-2.5,14.6c0.6,2.3,1.9,7.2,6.3,9.7C1013,737.7,1021.1,736.4,1024.7,730z"/>
	</g>
	<g>
		<path class="st1" d="M1169.8,951.5L1169.8,951.5c-3.5,0-6.3-2.9-6.3-6.3v-76.1c0-3.5,2.9-6.3,6.3-6.3l0,0c3.5,0,6.3,2.9,6.3,6.3
			v76.1C1176.1,948.6,1173.3,951.5,1169.8,951.5z"/>
		<path class="st1" d="M1172.9,928.6L1172.9,928.6c-1.7,3-5.6,4.1-8.7,2.3l-11.6-6.7c-3-1.7-4.1-5.6-2.3-8.7l0,0
			c1.7-3,5.6-4.1,8.7-2.3l11.6,6.7C1173.6,921.6,1174.7,925.5,1172.9,928.6z"/>
		<path class="st1" d="M1168.9,912.1L1168.9,912.1c1.7,3,5.6,4.1,8.7,2.3l19.5-11.3c3-1.7,4.1-5.6,2.3-8.7l0,0
			c-1.7-3-5.6-4.1-8.7-2.3l-19.5,11.3C1168.2,905.2,1167.2,909.1,1168.9,912.1z"/>
		<polygon class="st1" points="1168.3,877 1164.3,877.3 1159.5,877.5 1164.3,880.2 1166,881.2 		"/>
		<path class="st1" d="M1158.7,877c3.8-6.7-0.1-14.6-4.8-17.1c-1.3-0.7-4.3-1.8-7.5-1.1c-2.5,0.5-3.8,2.1-5.6,1.6
			c-2-0.6-2.1-2.9-3-2.9c-1.7,0.1-4.4,7.4-2.5,14.6c0.6,2.3,1.9,7.2,6.3,9.7C1147,884.7,1155.1,883.4,1158.7,877z"/>
	</g>
	<g>
		<path class="st1" d="M1037.8,1121.5L1037.8,1121.5c-3.5,0-6.3-2.9-6.3-6.3v-76.1c0-3.5,2.9-6.3,6.3-6.3l0,0c3.5,0,6.3,2.9,6.3,6.3
			v76.1C1044.1,1118.6,1041.3,1121.5,1037.8,1121.5z"/>
		<path class="st1" d="M1040.9,1098.6L1040.9,1098.6c-1.7,3-5.6,4.1-8.7,2.3l-11.6-6.7c-3-1.7-4.1-5.6-2.3-8.7l0,0
			c1.7-3,5.6-4.1,8.7-2.3l11.6,6.7C1041.6,1091.6,1042.7,1095.5,1040.9,1098.6z"/>
		<path class="st1" d="M1036.9,1082.1L1036.9,1082.1c1.7,3,5.6,4.1,8.7,2.3l19.5-11.3c3-1.7,4.1-5.6,2.3-8.7l0,0
			c-1.7-3-5.6-4.1-8.7-2.3l-19.5,11.3C1036.2,1075.2,1035.2,1079.1,1036.9,1082.1z"/>
		<polygon class="st1" points="1036.3,1047 1032.3,1047.3 1027.5,1047.5 1032.3,1050.2 1034,1051.2 		"/>
		<path class="st1" d="M1026.7,1047c3.8-6.7-0.1-14.6-4.8-17.1c-1.3-0.7-4.3-1.8-7.5-1.1c-2.5,0.5-3.8,2.1-5.6,1.6
			c-2-0.6-2.1-2.9-3-2.9c-1.7,0.1-4.4,7.4-2.5,14.6c0.6,2.3,1.9,7.2,6.3,9.7C1015,1054.7,1023.1,1053.4,1026.7,1047z"/>
	</g>
	<g>
		<path class="st1" d="M1278.8,118.5L1278.8,118.5c-3.5,0-6.3-2.9-6.3-6.3V36.1c0-3.5,2.9-6.3,6.3-6.3l0,0c3.5,0,6.3,2.9,6.3,6.3
			v76.1C1285.1,115.6,1282.3,118.5,1278.8,118.5z"/>
		<path class="st1" d="M1281.9,95.6L1281.9,95.6c-1.7,3-5.6,4.1-8.7,2.3l-11.6-6.7c-3-1.7-4.1-5.6-2.3-8.7v0c1.7-3,5.6-4.1,8.7-2.3
			l11.6,6.7C1282.6,88.6,1283.7,92.5,1281.9,95.6z"/>
		<path class="st1" d="M1277.9,79.1L1277.9,79.1c1.7,3,5.6,4.1,8.7,2.3l19.5-11.3c3-1.7,4.1-5.6,2.3-8.7v0c-1.7-3-5.6-4.1-8.7-2.3
			l-19.5,11.3C1277.2,72.2,1276.2,76.1,1277.9,79.1z"/>
		<polygon class="st1" points="1277.3,44 1273.3,44.3 1268.5,44.5 1273.3,47.2 1275,48.2 		"/>
		<path class="st1" d="M1267.7,44c3.8-6.7-0.1-14.6-4.8-17.1c-1.3-0.7-4.3-1.8-7.5-1.1c-2.5,0.5-3.8,2.1-5.6,1.6
			c-2-0.6-2.1-2.9-3-2.9c-1.7,0.1-4.4,7.4-2.5,14.6c0.6,2.3,1.9,7.2,6.3,9.7C1256,51.7,1264.1,50.4,1267.7,44z"/>
	</g>
	<g>
		<path class="st1" d="M1412.8,37.5L1412.8,37.5c-3.5,0-6.3-2.9-6.3-6.3v-76.1c0-3.5,2.9-6.3,6.3-6.3l0,0c3.5,0,6.3,2.9,6.3,6.3
			v76.1C1419.1,34.6,1416.3,37.5,1412.8,37.5z"/>
		<path class="st1" d="M1415.9,14.6L1415.9,14.6c-1.7,3-5.6,4.1-8.7,2.3l-11.6-6.7c-3-1.7-4.1-5.6-2.3-8.7v0c1.7-3,5.6-4.1,8.7-2.3
			l11.6,6.7C1416.6,7.6,1417.7,11.5,1415.9,14.6z"/>
		<path class="st1" d="M1411.9-1.9L1411.9-1.9c1.7,3,5.6,4.1,8.7,2.3l19.5-11.3c3-1.7,4.1-5.6,2.3-8.7v0c-1.7-3-5.6-4.1-8.7-2.3
			l-19.5,11.3C1411.2-8.8,1410.2-4.9,1411.9-1.9z"/>
		<polygon class="st1" points="1411.3,-37 1407.3,-36.7 1402.5,-36.5 1407.3,-33.8 1409,-32.8 		"/>
		<path class="st1" d="M1401.7-37c3.8-6.7-0.1-14.6-4.8-17.1c-1.3-0.7-4.3-1.8-7.5-1.1c-2.5,0.5-3.8,2.1-5.6,1.6
			c-2-0.6-2.1-2.9-3-2.9c-1.7,0.1-4.4,7.4-2.5,14.6c0.6,2.3,1.9,7.2,6.3,9.7C1390-29.3,1398.1-30.6,1401.7-37z"/>
	</g>
	<g>
		<path class="st1" d="M1412.8,280.5L1412.8,280.5c-3.5,0-6.3-2.9-6.3-6.3v-76.1c0-3.5,2.9-6.3,6.3-6.3l0,0c3.5,0,6.3,2.9,6.3,6.3
			v76.1C1419.1,277.6,1416.3,280.5,1412.8,280.5z"/>
		<path class="st1" d="M1415.9,257.6L1415.9,257.6c-1.7,3-5.6,4.1-8.7,2.3l-11.6-6.7c-3-1.7-4.1-5.6-2.3-8.7v0
			c1.7-3,5.6-4.1,8.7-2.3l11.6,6.7C1416.6,250.6,1417.7,254.5,1415.9,257.6z"/>
		<path class="st1" d="M1411.9,241.1L1411.9,241.1c1.7,3,5.6,4.1,8.7,2.3l19.5-11.3c3-1.7,4.1-5.6,2.3-8.7v0c-1.7-3-5.6-4.1-8.7-2.3
			l-19.5,11.3C1411.2,234.2,1410.2,238.1,1411.9,241.1z"/>
		<polygon class="st1" points="1411.3,206 1407.3,206.3 1402.5,206.5 1407.3,209.2 1409,210.2 		"/>
		<path class="st1" d="M1401.7,206c3.8-6.7-0.1-14.6-4.8-17.1c-1.3-0.7-4.3-1.8-7.5-1.1c-2.5,0.5-3.8,2.1-5.6,1.6
			c-2-0.6-2.1-2.9-3-2.9c-1.7,0.1-4.4,7.4-2.5,14.6c0.6,2.3,1.9,7.2,6.3,9.7C1390,213.7,1398.1,212.4,1401.7,206z"/>
	</g>
	<g>
		<path class="st1" d="M1280.8,461.5L1280.8,461.5c-3.5,0-6.3-2.9-6.3-6.3v-76.1c0-3.5,2.9-6.3,6.3-6.3l0,0c3.5,0,6.3,2.9,6.3,6.3
			v76.1C1287.1,458.6,1284.3,461.5,1280.8,461.5z"/>
		<path class="st1" d="M1283.9,438.6L1283.9,438.6c-1.7,3-5.6,4.1-8.7,2.3l-11.6-6.7c-3-1.7-4.1-5.6-2.3-8.7l0,0
			c1.7-3,5.6-4.1,8.7-2.3l11.6,6.7C1284.6,431.6,1285.7,435.5,1283.9,438.6z"/>
		<path class="st1" d="M1279.9,422.1L1279.9,422.1c1.7,3,5.6,4.1,8.7,2.3l19.5-11.3c3-1.7,4.1-5.6,2.3-8.7l0,0
			c-1.7-3-5.6-4.1-8.7-2.3l-19.5,11.3C1279.2,415.2,1278.2,419.1,1279.9,422.1z"/>
		<polygon class="st1" points="1279.3,387 1275.3,387.3 1270.5,387.5 1275.3,390.2 1277,391.2 		"/>
		<path class="st1" d="M1269.7,387c3.8-6.7-0.1-14.6-4.8-17.1c-1.3-0.7-4.3-1.8-7.5-1.1c-2.5,0.5-3.8,2.1-5.6,1.6
			c-2-0.6-2.1-2.9-3-2.9c-1.7,0.1-4.4,7.4-2.5,14.6c0.6,2.3,1.9,7.2,6.3,9.7C1258,394.7,1266.1,393.4,1269.7,387z"/>
	</g>
	<g>
		<path class="st1" d="M1407.8,618.5L1407.8,618.5c-3.5,0-6.3-2.9-6.3-6.3v-76.1c0-3.5,2.9-6.3,6.3-6.3l0,0c3.5,0,6.3,2.9,6.3,6.3
			v76.1C1414.1,615.6,1411.3,618.5,1407.8,618.5z"/>
		<path class="st1" d="M1410.9,595.6L1410.9,595.6c-1.7,3-5.6,4.1-8.7,2.3l-11.6-6.7c-3-1.7-4.1-5.6-2.3-8.7l0,0
			c1.7-3,5.6-4.1,8.7-2.3l11.6,6.7C1411.6,588.6,1412.7,592.5,1410.9,595.6z"/>
		<path class="st1" d="M1406.9,579.1L1406.9,579.1c1.7,3,5.6,4.1,8.7,2.3l19.5-11.3c3-1.7,4.1-5.6,2.3-8.7l0,0
			c-1.7-3-5.6-4.1-8.7-2.3l-19.5,11.3C1406.2,572.2,1405.2,576.1,1406.9,579.1z"/>
		<polygon class="st1" points="1406.3,544 1402.3,544.3 1397.5,544.5 1402.3,547.2 1404,548.2 		"/>
		<path class="st1" d="M1396.7,544c3.8-6.7-0.1-14.6-4.8-17.1c-1.3-0.7-4.3-1.8-7.5-1.1c-2.5,0.5-3.8,2.1-5.6,1.6
			c-2-0.6-2.1-2.9-3-2.9c-1.7,0.1-4.4,7.4-2.5,14.6c0.6,2.3,1.9,7.2,6.3,9.7C1385,551.7,1393.1,550.4,1396.7,544z"/>
	</g>
	<g>
		<path class="st1" d="M1282.8,804.5L1282.8,804.5c-3.5,0-6.3-2.9-6.3-6.3v-76.1c0-3.5,2.9-6.3,6.3-6.3l0,0c3.5,0,6.3,2.9,6.3,6.3
			v76.1C1289.1,801.6,1286.3,804.5,1282.8,804.5z"/>
		<path class="st1" d="M1285.9,781.6L1285.9,781.6c-1.7,3-5.6,4.1-8.7,2.3l-11.6-6.7c-3-1.7-4.1-5.6-2.3-8.7l0,0
			c1.7-3,5.6-4.1,8.7-2.3l11.6,6.7C1286.6,774.6,1287.7,778.5,1285.9,781.6z"/>
		<path class="st1" d="M1281.9,765.1L1281.9,765.1c1.7,3,5.6,4.1,8.7,2.3l19.5-11.3c3-1.7,4.1-5.6,2.3-8.7l0,0
			c-1.7-3-5.6-4.1-8.7-2.3l-19.5,11.3C1281.2,758.2,1280.2,762.1,1281.9,765.1z"/>
		<polygon class="st1" points="1281.3,730 1277.3,730.3 1272.5,730.5 1277.3,733.2 1279,734.2 		"/>
		<path class="st1" d="M1271.7,730c3.8-6.7-0.1-14.6-4.8-17.1c-1.3-0.7-4.3-1.8-7.5-1.1c-2.5,0.5-3.8,2.1-5.6,1.6
			c-2-0.6-2.1-2.9-3-2.9c-1.7,0.1-4.4,7.4-2.5,14.6c0.6,2.3,1.9,7.2,6.3,9.7C1260,737.7,1268.1,736.4,1271.7,730z"/>
	</g>
	<g>
		<path class="st1" d="M1416.8,951.5L1416.8,951.5c-3.5,0-6.3-2.9-6.3-6.3v-76.1c0-3.5,2.9-6.3,6.3-6.3l0,0c3.5,0,6.3,2.9,6.3,6.3
			v76.1C1423.1,948.6,1420.3,951.5,1416.8,951.5z"/>
		<path class="st1" d="M1419.9,928.6L1419.9,928.6c-1.7,3-5.6,4.1-8.7,2.3l-11.6-6.7c-3-1.7-4.1-5.6-2.3-8.7l0,0
			c1.7-3,5.6-4.1,8.7-2.3l11.6,6.7C1420.6,921.6,1421.7,925.5,1419.9,928.6z"/>
		<path class="st1" d="M1415.9,912.1L1415.9,912.1c1.7,3,5.6,4.1,8.7,2.3l19.5-11.3c3-1.7,4.1-5.6,2.3-8.7l0,0
			c-1.7-3-5.6-4.1-8.7-2.3l-19.5,11.3C1415.2,905.2,1414.2,909.1,1415.9,912.1z"/>
		<polygon class="st1" points="1415.3,877 1411.3,877.3 1406.5,877.5 1411.3,880.2 1413,881.2 		"/>
		<path class="st1" d="M1405.7,877c3.8-6.7-0.1-14.6-4.8-17.1c-1.3-0.7-4.3-1.8-7.5-1.1c-2.5,0.5-3.8,2.1-5.6,1.6
			c-2-0.6-2.1-2.9-3-2.9c-1.7,0.1-4.4,7.4-2.5,14.6c0.6,2.3,1.9,7.2,6.3,9.7C1394,884.7,1402.1,883.4,1405.7,877z"/>
	</g>
	<g>
		<path class="st1" d="M1284.8,1121.5L1284.8,1121.5c-3.5,0-6.3-2.9-6.3-6.3v-76.1c0-3.5,2.9-6.3,6.3-6.3l0,0c3.5,0,6.3,2.9,6.3,6.3
			v76.1C1291.1,1118.6,1288.3,1121.5,1284.8,1121.5z"/>
		<path class="st1" d="M1287.9,1098.6L1287.9,1098.6c-1.7,3-5.6,4.1-8.7,2.3l-11.6-6.7c-3-1.7-4.1-5.6-2.3-8.7l0,0
			c1.7-3,5.6-4.1,8.7-2.3l11.6,6.7C1288.6,1091.6,1289.7,1095.5,1287.9,1098.6z"/>
		<path class="st1" d="M1283.9,1082.1L1283.9,1082.1c1.7,3,5.6,4.1,8.7,2.3l19.5-11.3c3-1.7,4.1-5.6,2.3-8.7l0,0
			c-1.7-3-5.6-4.1-8.7-2.3l-19.5,11.3C1283.2,1075.2,1282.2,1079.1,1283.9,1082.1z"/>
		<polygon class="st1" points="1283.3,1047 1279.3,1047.3 1274.5,1047.5 1279.3,1050.2 1281,1051.2 		"/>
		<path class="st1" d="M1273.7,1047c3.8-6.7-0.1-14.6-4.8-17.1c-1.3-0.7-4.3-1.8-7.5-1.1c-2.5,0.5-3.8,2.1-5.6,1.6
			c-2-0.6-2.1-2.9-3-2.9c-1.7,0.1-4.4,7.4-2.5,14.6c0.6,2.3,1.9,7.2,6.3,9.7C1262,1054.7,1270.1,1053.4,1273.7,1047z"/>
	</g>
	<g>
		<path class="st1" d="M1521.8,118.5L1521.8,118.5c-3.5,0-6.3-2.9-6.3-6.3V36.1c0-3.5,2.9-6.3,6.3-6.3l0,0c3.5,0,6.3,2.9,6.3,6.3
			v76.1C1528.1,115.6,1525.3,118.5,1521.8,118.5z"/>
		<path class="st1" d="M1524.9,95.6L1524.9,95.6c-1.7,3-5.6,4.1-8.7,2.3l-11.6-6.7c-3-1.7-4.1-5.6-2.3-8.7v0c1.7-3,5.6-4.1,8.7-2.3
			l11.6,6.7C1525.6,88.6,1526.7,92.5,1524.9,95.6z"/>
		<path class="st1" d="M1520.9,79.1L1520.9,79.1c1.7,3,5.6,4.1,8.7,2.3l19.5-11.3c3-1.7,4.1-5.6,2.3-8.7v0c-1.7-3-5.6-4.1-8.7-2.3
			l-19.5,11.3C1520.2,72.2,1519.2,76.1,1520.9,79.1z"/>
		<polygon class="st1" points="1520.3,44 1516.3,44.3 1511.5,44.5 1516.3,47.2 1518,48.2 		"/>
		<path class="st1" d="M1510.7,44c3.8-6.7-0.1-14.6-4.8-17.1c-1.3-0.7-4.3-1.8-7.5-1.1c-2.5,0.5-3.8,2.1-5.6,1.6
			c-2-0.6-2.1-2.9-3-2.9c-1.7,0.1-4.4,7.4-2.5,14.6c0.6,2.3,1.9,7.2,6.3,9.7C1499,51.7,1507.1,50.4,1510.7,44z"/>
	</g>
	<g>
		<path class="st1" d="M1655.8,37.5L1655.8,37.5c-3.5,0-6.3-2.9-6.3-6.3v-76.1c0-3.5,2.9-6.3,6.3-6.3l0,0c3.5,0,6.3,2.9,6.3,6.3
			v76.1C1662.1,34.6,1659.3,37.5,1655.8,37.5z"/>
		<path class="st1" d="M1658.9,14.6L1658.9,14.6c-1.7,3-5.6,4.1-8.7,2.3l-11.6-6.7c-3-1.7-4.1-5.6-2.3-8.7v0c1.7-3,5.6-4.1,8.7-2.3
			l11.6,6.7C1659.6,7.6,1660.7,11.5,1658.9,14.6z"/>
		<path class="st1" d="M1654.9-1.9L1654.9-1.9c1.7,3,5.6,4.1,8.7,2.3l19.5-11.3c3-1.7,4.1-5.6,2.3-8.7v0c-1.7-3-5.6-4.1-8.7-2.3
			l-19.5,11.3C1654.2-8.8,1653.2-4.9,1654.9-1.9z"/>
		<polygon class="st1" points="1654.3,-37 1650.3,-36.7 1645.5,-36.5 1650.3,-33.8 1652,-32.8 		"/>
		<path class="st1" d="M1644.7-37c3.8-6.7-0.1-14.6-4.8-17.1c-1.3-0.7-4.3-1.8-7.5-1.1c-2.5,0.5-3.8,2.1-5.6,1.6
			c-2-0.6-2.1-2.9-3-2.9c-1.7,0.1-4.4,7.4-2.5,14.6c0.6,2.3,1.9,7.2,6.3,9.7C1633-29.3,1641.1-30.6,1644.7-37z"/>
	</g>
	<g>
		<path class="st1" d="M1655.8,280.5L1655.8,280.5c-3.5,0-6.3-2.9-6.3-6.3v-76.1c0-3.5,2.9-6.3,6.3-6.3l0,0c3.5,0,6.3,2.9,6.3,6.3
			v76.1C1662.1,277.6,1659.3,280.5,1655.8,280.5z"/>
		<path class="st1" d="M1658.9,257.6L1658.9,257.6c-1.7,3-5.6,4.1-8.7,2.3l-11.6-6.7c-3-1.7-4.1-5.6-2.3-8.7v0
			c1.7-3,5.6-4.1,8.7-2.3l11.6,6.7C1659.6,250.6,1660.7,254.5,1658.9,257.6z"/>
		<path class="st1" d="M1654.9,241.1L1654.9,241.1c1.7,3,5.6,4.1,8.7,2.3l19.5-11.3c3-1.7,4.1-5.6,2.3-8.7v0c-1.7-3-5.6-4.1-8.7-2.3
			l-19.5,11.3C1654.2,234.2,1653.2,238.1,1654.9,241.1z"/>
		<polygon class="st1" points="1654.3,206 1650.3,206.3 1645.5,206.5 1650.3,209.2 1652,210.2 		"/>
		<path class="st1" d="M1644.7,206c3.8-6.7-0.1-14.6-4.8-17.1c-1.3-0.7-4.3-1.8-7.5-1.1c-2.5,0.5-3.8,2.1-5.6,1.6
			c-2-0.6-2.1-2.9-3-2.9c-1.7,0.1-4.4,7.4-2.5,14.6c0.6,2.3,1.9,7.2,6.3,9.7C1633,213.7,1641.1,212.4,1644.7,206z"/>
	</g>
	<g>
		<path class="st1" d="M1523.8,461.5L1523.8,461.5c-3.5,0-6.3-2.9-6.3-6.3v-76.1c0-3.5,2.9-6.3,6.3-6.3l0,0c3.5,0,6.3,2.9,6.3,6.3
			v76.1C1530.1,458.6,1527.3,461.5,1523.8,461.5z"/>
		<path class="st1" d="M1526.9,438.6L1526.9,438.6c-1.7,3-5.6,4.1-8.7,2.3l-11.6-6.7c-3-1.7-4.1-5.6-2.3-8.7l0,0
			c1.7-3,5.6-4.1,8.7-2.3l11.6,6.7C1527.6,431.6,1528.7,435.5,1526.9,438.6z"/>
		<path class="st1" d="M1522.9,422.1L1522.9,422.1c1.7,3,5.6,4.1,8.7,2.3l19.5-11.3c3-1.7,4.1-5.6,2.3-8.7l0,0
			c-1.7-3-5.6-4.1-8.7-2.3l-19.5,11.3C1522.2,415.2,1521.2,419.1,1522.9,422.1z"/>
		<polygon class="st1" points="1522.3,387 1518.3,387.3 1513.5,387.5 1518.3,390.2 1520,391.2 		"/>
		<path class="st1" d="M1512.7,387c3.8-6.7-0.1-14.6-4.8-17.1c-1.3-0.7-4.3-1.8-7.5-1.1c-2.5,0.5-3.8,2.1-5.6,1.6
			c-2-0.6-2.1-2.9-3-2.9c-1.7,0.1-4.4,7.4-2.5,14.6c0.6,2.3,1.9,7.2,6.3,9.7C1501,394.7,1509.1,393.4,1512.7,387z"/>
	</g>
	<g>
		<path class="st1" d="M1650.8,618.5L1650.8,618.5c-3.5,0-6.3-2.9-6.3-6.3v-76.1c0-3.5,2.9-6.3,6.3-6.3l0,0c3.5,0,6.3,2.9,6.3,6.3
			v76.1C1657.1,615.6,1654.3,618.5,1650.8,618.5z"/>
		<path class="st1" d="M1653.9,595.6L1653.9,595.6c-1.7,3-5.6,4.1-8.7,2.3l-11.6-6.7c-3-1.7-4.1-5.6-2.3-8.7l0,0
			c1.7-3,5.6-4.1,8.7-2.3l11.6,6.7C1654.6,588.6,1655.7,592.5,1653.9,595.6z"/>
		<path class="st1" d="M1649.9,579.1L1649.9,579.1c1.7,3,5.6,4.1,8.7,2.3l19.5-11.3c3-1.7,4.1-5.6,2.3-8.7l0,0
			c-1.7-3-5.6-4.1-8.7-2.3l-19.5,11.3C1649.2,572.2,1648.2,576.1,1649.9,579.1z"/>
		<polygon class="st1" points="1649.3,544 1645.3,544.3 1640.5,544.5 1645.3,547.2 1647,548.2 		"/>
		<path class="st1" d="M1639.7,544c3.8-6.7-0.1-14.6-4.8-17.1c-1.3-0.7-4.3-1.8-7.5-1.1c-2.5,0.5-3.8,2.1-5.6,1.6
			c-2-0.6-2.1-2.9-3-2.9c-1.7,0.1-4.4,7.4-2.5,14.6c0.6,2.3,1.9,7.2,6.3,9.7C1628,551.7,1636.1,550.4,1639.7,544z"/>
	</g>
	<g>
		<path class="st1" d="M1525.8,804.5L1525.8,804.5c-3.5,0-6.3-2.9-6.3-6.3v-76.1c0-3.5,2.9-6.3,6.3-6.3l0,0c3.5,0,6.3,2.9,6.3,6.3
			v76.1C1532.1,801.6,1529.3,804.5,1525.8,804.5z"/>
		<path class="st1" d="M1528.9,781.6L1528.9,781.6c-1.7,3-5.6,4.1-8.7,2.3l-11.6-6.7c-3-1.7-4.1-5.6-2.3-8.7l0,0
			c1.7-3,5.6-4.1,8.7-2.3l11.6,6.7C1529.6,774.6,1530.7,778.5,1528.9,781.6z"/>
		<path class="st1" d="M1524.9,765.1L1524.9,765.1c1.7,3,5.6,4.1,8.7,2.3l19.5-11.3c3-1.7,4.1-5.6,2.3-8.7l0,0
			c-1.7-3-5.6-4.1-8.7-2.3l-19.5,11.3C1524.2,758.2,1523.2,762.1,1524.9,765.1z"/>
		<polygon class="st1" points="1524.3,730 1520.3,730.3 1515.5,730.5 1520.3,733.2 1522,734.2 		"/>
		<path class="st1" d="M1514.7,730c3.8-6.7-0.1-14.6-4.8-17.1c-1.3-0.7-4.3-1.8-7.5-1.1c-2.5,0.5-3.8,2.1-5.6,1.6
			c-2-0.6-2.1-2.9-3-2.9c-1.7,0.1-4.4,7.4-2.5,14.6c0.6,2.3,1.9,7.2,6.3,9.7C1503,737.7,1511.1,736.4,1514.7,730z"/>
	</g>
	<g>
		<path class="st1" d="M1659.8,951.5L1659.8,951.5c-3.5,0-6.3-2.9-6.3-6.3v-76.1c0-3.5,2.9-6.3,6.3-6.3l0,0c3.5,0,6.3,2.9,6.3,6.3
			v76.1C1666.1,948.6,1663.3,951.5,1659.8,951.5z"/>
		<path class="st1" d="M1662.9,928.6L1662.9,928.6c-1.7,3-5.6,4.1-8.7,2.3l-11.6-6.7c-3-1.7-4.1-5.6-2.3-8.7l0,0
			c1.7-3,5.6-4.1,8.7-2.3l11.6,6.7C1663.6,921.6,1664.7,925.5,1662.9,928.6z"/>
		<path class="st1" d="M1658.9,912.1L1658.9,912.1c1.7,3,5.6,4.1,8.7,2.3l19.5-11.3c3-1.7,4.1-5.6,2.3-8.7l0,0
			c-1.7-3-5.6-4.1-8.7-2.3l-19.5,11.3C1658.2,905.2,1657.2,909.1,1658.9,912.1z"/>
		<polygon class="st1" points="1658.3,877 1654.3,877.3 1649.5,877.5 1654.3,880.2 1656,881.2 		"/>
		<path class="st1" d="M1648.7,877c3.8-6.7-0.1-14.6-4.8-17.1c-1.3-0.7-4.3-1.8-7.5-1.1c-2.5,0.5-3.8,2.1-5.6,1.6
			c-2-0.6-2.1-2.9-3-2.9c-1.7,0.1-4.4,7.4-2.5,14.6c0.6,2.3,1.9,7.2,6.3,9.7C1637,884.7,1645.1,883.4,1648.7,877z"/>
	</g>
	<g>
		<path class="st1" d="M1527.8,1121.5L1527.8,1121.5c-3.5,0-6.3-2.9-6.3-6.3v-76.1c0-3.5,2.9-6.3,6.3-6.3l0,0c3.5,0,6.3,2.9,6.3,6.3
			v76.1C1534.1,1118.6,1531.3,1121.5,1527.8,1121.5z"/>
		<path class="st1" d="M1530.9,1098.6L1530.9,1098.6c-1.7,3-5.6,4.1-8.7,2.3l-11.6-6.7c-3-1.7-4.1-5.6-2.3-8.7l0,0
			c1.7-3,5.6-4.1,8.7-2.3l11.6,6.7C1531.6,1091.6,1532.7,1095.5,1530.9,1098.6z"/>
		<path class="st1" d="M1526.9,1082.1L1526.9,1082.1c1.7,3,5.6,4.1,8.7,2.3l19.5-11.3c3-1.7,4.1-5.6,2.3-8.7l0,0
			c-1.7-3-5.6-4.1-8.7-2.3l-19.5,11.3C1526.2,1075.2,1525.2,1079.1,1526.9,1082.1z"/>
		<polygon class="st1" points="1526.3,1047 1522.3,1047.3 1517.5,1047.5 1522.3,1050.2 1524,1051.2 		"/>
		<path class="st1" d="M1516.7,1047c3.8-6.7-0.1-14.6-4.8-17.1c-1.3-0.7-4.3-1.8-7.5-1.1c-2.5,0.5-3.8,2.1-5.6,1.6
			c-2-0.6-2.1-2.9-3-2.9c-1.7,0.1-4.4,7.4-2.5,14.6c0.6,2.3,1.9,7.2,6.3,9.7C1505,1054.7,1513.1,1053.4,1516.7,1047z"/>
	</g>
	<g>
		<path class="st1" d="M1768.8,118.5L1768.8,118.5c-3.5,0-6.3-2.9-6.3-6.3V36.1c0-3.5,2.9-6.3,6.3-6.3l0,0c3.5,0,6.3,2.9,6.3,6.3
			v76.1C1775.1,115.6,1772.3,118.5,1768.8,118.5z"/>
		<path class="st1" d="M1771.9,95.6L1771.9,95.6c-1.7,3-5.6,4.1-8.7,2.3l-11.6-6.7c-3-1.7-4.1-5.6-2.3-8.7v0c1.7-3,5.6-4.1,8.7-2.3
			l11.6,6.7C1772.6,88.6,1773.7,92.5,1771.9,95.6z"/>
		<path class="st1" d="M1767.9,79.1L1767.9,79.1c1.7,3,5.6,4.1,8.7,2.3l19.5-11.3c3-1.7,4.1-5.6,2.3-8.7v0c-1.7-3-5.6-4.1-8.7-2.3
			l-19.5,11.3C1767.2,72.2,1766.2,76.1,1767.9,79.1z"/>
		<polygon class="st1" points="1767.3,44 1763.3,44.3 1758.5,44.5 1763.3,47.2 1765,48.2 		"/>
		<path class="st1" d="M1757.7,44c3.8-6.7-0.1-14.6-4.8-17.1c-1.3-0.7-4.3-1.8-7.5-1.1c-2.5,0.5-3.8,2.1-5.6,1.6
			c-2-0.6-2.1-2.9-3-2.9c-1.7,0.1-4.4,7.4-2.5,14.6c0.6,2.3,1.9,7.2,6.3,9.7C1746,51.7,1754.1,50.4,1757.7,44z"/>
	</g>
	<g>
		<path class="st1" d="M1902.8,37.5L1902.8,37.5c-3.5,0-6.3-2.9-6.3-6.3v-76.1c0-3.5,2.9-6.3,6.3-6.3l0,0c3.5,0,6.3,2.9,6.3,6.3
			v76.1C1909.1,34.6,1906.3,37.5,1902.8,37.5z"/>
		<path class="st1" d="M1905.9,14.6L1905.9,14.6c-1.7,3-5.6,4.1-8.7,2.3l-11.6-6.7c-3-1.7-4.1-5.6-2.3-8.7v0c1.7-3,5.6-4.1,8.7-2.3
			l11.6,6.7C1906.6,7.6,1907.7,11.5,1905.9,14.6z"/>
		<path class="st1" d="M1901.9-1.9L1901.9-1.9c1.7,3,5.6,4.1,8.7,2.3l19.5-11.3c3-1.7,4.1-5.6,2.3-8.7v0c-1.7-3-5.6-4.1-8.7-2.3
			l-19.5,11.3C1901.2-8.8,1900.2-4.9,1901.9-1.9z"/>
		<polygon class="st1" points="1901.3,-37 1897.3,-36.7 1892.5,-36.5 1897.3,-33.8 1899,-32.8 		"/>
		<path class="st1" d="M1891.7-37c3.8-6.7-0.1-14.6-4.8-17.1c-1.3-0.7-4.3-1.8-7.5-1.1c-2.5,0.5-3.8,2.1-5.6,1.6
			c-2-0.6-2.1-2.9-3-2.9c-1.7,0.1-4.4,7.4-2.5,14.6c0.6,2.3,1.9,7.2,6.3,9.7C1880-29.3,1888.1-30.6,1891.7-37z"/>
	</g>
	<g>
		<path class="st1" d="M1902.8,280.5L1902.8,280.5c-3.5,0-6.3-2.9-6.3-6.3v-76.1c0-3.5,2.9-6.3,6.3-6.3l0,0c3.5,0,6.3,2.9,6.3,6.3
			v76.1C1909.1,277.6,1906.3,280.5,1902.8,280.5z"/>
		<path class="st1" d="M1905.9,257.6L1905.9,257.6c-1.7,3-5.6,4.1-8.7,2.3l-11.6-6.7c-3-1.7-4.1-5.6-2.3-8.7v0
			c1.7-3,5.6-4.1,8.7-2.3l11.6,6.7C1906.6,250.6,1907.7,254.5,1905.9,257.6z"/>
		<path class="st1" d="M1901.9,241.1L1901.9,241.1c1.7,3,5.6,4.1,8.7,2.3l19.5-11.3c3-1.7,4.1-5.6,2.3-8.7v0c-1.7-3-5.6-4.1-8.7-2.3
			l-19.5,11.3C1901.2,234.2,1900.2,238.1,1901.9,241.1z"/>
		<polygon class="st1" points="1901.3,206 1897.3,206.3 1892.5,206.5 1897.3,209.2 1899,210.2 		"/>
		<path class="st1" d="M1891.7,206c3.8-6.7-0.1-14.6-4.8-17.1c-1.3-0.7-4.3-1.8-7.5-1.1c-2.5,0.5-3.8,2.1-5.6,1.6
			c-2-0.6-2.1-2.9-3-2.9c-1.7,0.1-4.4,7.4-2.5,14.6c0.6,2.3,1.9,7.2,6.3,9.7C1880,213.7,1888.1,212.4,1891.7,206z"/>
	</g>
	<g>
		<path class="st1" d="M1770.8,461.5L1770.8,461.5c-3.5,0-6.3-2.9-6.3-6.3v-76.1c0-3.5,2.9-6.3,6.3-6.3l0,0c3.5,0,6.3,2.9,6.3,6.3
			v76.1C1777.1,458.6,1774.3,461.5,1770.8,461.5z"/>
		<path class="st1" d="M1773.9,438.6L1773.9,438.6c-1.7,3-5.6,4.1-8.7,2.3l-11.6-6.7c-3-1.7-4.1-5.6-2.3-8.7l0,0
			c1.7-3,5.6-4.1,8.7-2.3l11.6,6.7C1774.6,431.6,1775.7,435.5,1773.9,438.6z"/>
		<path class="st1" d="M1769.9,422.1L1769.9,422.1c1.7,3,5.6,4.1,8.7,2.3l19.5-11.3c3-1.7,4.1-5.6,2.3-8.7l0,0
			c-1.7-3-5.6-4.1-8.7-2.3l-19.5,11.3C1769.2,415.2,1768.2,419.1,1769.9,422.1z"/>
		<polygon class="st1" points="1769.3,387 1765.3,387.3 1760.5,387.5 1765.3,390.2 1767,391.2 		"/>
		<path class="st1" d="M1759.7,387c3.8-6.7-0.1-14.6-4.8-17.1c-1.3-0.7-4.3-1.8-7.5-1.1c-2.5,0.5-3.8,2.1-5.6,1.6
			c-2-0.6-2.1-2.9-3-2.9c-1.7,0.1-4.4,7.4-2.5,14.6c0.6,2.3,1.9,7.2,6.3,9.7C1748,394.7,1756.1,393.4,1759.7,387z"/>
	</g>
	<g>
		<path class="st1" d="M1897.8,618.5L1897.8,618.5c-3.5,0-6.3-2.9-6.3-6.3v-76.1c0-3.5,2.9-6.3,6.3-6.3l0,0c3.5,0,6.3,2.9,6.3,6.3
			v76.1C1904.1,615.6,1901.3,618.5,1897.8,618.5z"/>
		<path class="st1" d="M1900.9,595.6L1900.9,595.6c-1.7,3-5.6,4.1-8.7,2.3l-11.6-6.7c-3-1.7-4.1-5.6-2.3-8.7l0,0
			c1.7-3,5.6-4.1,8.7-2.3l11.6,6.7C1901.6,588.6,1902.7,592.5,1900.9,595.6z"/>
		<path class="st1" d="M1896.9,579.1L1896.9,579.1c1.7,3,5.6,4.1,8.7,2.3l19.5-11.3c3-1.7,4.1-5.6,2.3-8.7l0,0
			c-1.7-3-5.6-4.1-8.7-2.3l-19.5,11.3C1896.2,572.2,1895.2,576.1,1896.9,579.1z"/>
		<polygon class="st1" points="1896.3,544 1892.3,544.3 1887.5,544.5 1892.3,547.2 1894,548.2 		"/>
		<path class="st1" d="M1886.7,544c3.8-6.7-0.1-14.6-4.8-17.1c-1.3-0.7-4.3-1.8-7.5-1.1c-2.5,0.5-3.8,2.1-5.6,1.6
			c-2-0.6-2.1-2.9-3-2.9c-1.7,0.1-4.4,7.4-2.5,14.6c0.6,2.3,1.9,7.2,6.3,9.7C1875,551.7,1883.1,550.4,1886.7,544z"/>
	</g>
	<g>
		<path class="st1" d="M1772.8,804.5L1772.8,804.5c-3.5,0-6.3-2.9-6.3-6.3v-76.1c0-3.5,2.9-6.3,6.3-6.3l0,0c3.5,0,6.3,2.9,6.3,6.3
			v76.1C1779.1,801.6,1776.3,804.5,1772.8,804.5z"/>
		<path class="st1" d="M1775.9,781.6L1775.9,781.6c-1.7,3-5.6,4.1-8.7,2.3l-11.6-6.7c-3-1.7-4.1-5.6-2.3-8.7l0,0
			c1.7-3,5.6-4.1,8.7-2.3l11.6,6.7C1776.6,774.6,1777.7,778.5,1775.9,781.6z"/>
		<path class="st1" d="M1771.9,765.1L1771.9,765.1c1.7,3,5.6,4.1,8.7,2.3l19.5-11.3c3-1.7,4.1-5.6,2.3-8.7l0,0
			c-1.7-3-5.6-4.1-8.7-2.3l-19.5,11.3C1771.2,758.2,1770.2,762.1,1771.9,765.1z"/>
		<polygon class="st1" points="1771.3,730 1767.3,730.3 1762.5,730.5 1767.3,733.2 1769,734.2 		"/>
		<path class="st1" d="M1761.7,730c3.8-6.7-0.1-14.6-4.8-17.1c-1.3-0.7-4.3-1.8-7.5-1.1c-2.5,0.5-3.8,2.1-5.6,1.6
			c-2-0.6-2.1-2.9-3-2.9c-1.7,0.1-4.4,7.4-2.5,14.6c0.6,2.3,1.9,7.2,6.3,9.7C1750,737.7,1758.1,736.4,1761.7,730z"/>
	</g>
	<g>
		<path class="st1" d="M1906.8,951.5L1906.8,951.5c-3.5,0-6.3-2.9-6.3-6.3v-76.1c0-3.5,2.9-6.3,6.3-6.3l0,0c3.5,0,6.3,2.9,6.3,6.3
			v76.1C1913.1,948.6,1910.3,951.5,1906.8,951.5z"/>
		<path class="st1" d="M1909.9,928.6L1909.9,928.6c-1.7,3-5.6,4.1-8.7,2.3l-11.6-6.7c-3-1.7-4.1-5.6-2.3-8.7l0,0
			c1.7-3,5.6-4.1,8.7-2.3l11.6,6.7C1910.6,921.6,1911.7,925.5,1909.9,928.6z"/>
		<path class="st1" d="M1905.9,912.1L1905.9,912.1c1.7,3,5.6,4.1,8.7,2.3l19.5-11.3c3-1.7,4.1-5.6,2.3-8.7l0,0
			c-1.7-3-5.6-4.1-8.7-2.3l-19.5,11.3C1905.2,905.2,1904.2,909.1,1905.9,912.1z"/>
		<polygon class="st1" points="1905.3,877 1901.3,877.3 1896.5,877.5 1901.3,880.2 1903,881.2 		"/>
		<path class="st1" d="M1895.7,877c3.8-6.7-0.1-14.6-4.8-17.1c-1.3-0.7-4.3-1.8-7.5-1.1c-2.5,0.5-3.8,2.1-5.6,1.6
			c-2-0.6-2.1-2.9-3-2.9c-1.7,0.1-4.4,7.4-2.5,14.6c0.6,2.3,1.9,7.2,6.3,9.7C1884,884.7,1892.1,883.4,1895.7,877z"/>
	</g>
	<g>
		<path class="st1" d="M1774.8,1121.5L1774.8,1121.5c-3.5,0-6.3-2.9-6.3-6.3v-76.1c0-3.5,2.9-6.3,6.3-6.3l0,0c3.5,0,6.3,2.9,6.3,6.3
			v76.1C1781.1,1118.6,1778.3,1121.5,1774.8,1121.5z"/>
		<path class="st1" d="M1777.9,1098.6L1777.9,1098.6c-1.7,3-5.6,4.1-8.7,2.3l-11.6-6.7c-3-1.7-4.1-5.6-2.3-8.7l0,0
			c1.7-3,5.6-4.1,8.7-2.3l11.6,6.7C1778.6,1091.6,1779.7,1095.5,1777.9,1098.6z"/>
		<path class="st1" d="M1773.9,1082.1L1773.9,1082.1c1.7,3,5.6,4.1,8.7,2.3l19.5-11.3c3-1.7,4.1-5.6,2.3-8.7l0,0
			c-1.7-3-5.6-4.1-8.7-2.3l-19.5,11.3C1773.2,1075.2,1772.2,1079.1,1773.9,1082.1z"/>
		<polygon class="st1" points="1773.3,1047 1769.3,1047.3 1764.5,1047.5 1769.3,1050.2 1771,1051.2 		"/>
		<path class="st1" d="M1763.7,1047c3.8-6.7-0.1-14.6-4.8-17.1c-1.3-0.7-4.3-1.8-7.5-1.1c-2.5,0.5-3.8,2.1-5.6,1.6
			c-2-0.6-2.1-2.9-3-2.9c-1.7,0.1-4.4,7.4-2.5,14.6c0.6,2.3,1.9,7.2,6.3,9.7C1752,1054.7,1760.1,1053.4,1763.7,1047z"/>
	</g>
</g>
</svg>
