<?xml version="1.0" encoding="utf-8"?>
<!-- Generator: Adobe Illustrator 23.0.1, SVG Export Plug-In . SVG Version: 6.00 Build 0)  -->
<svg version="1.1" id="Layer_1" xmlns="http://www.w3.org/2000/svg" xmlns:xlink="http://www.w3.org/1999/xlink" x="0px" y="0px"
	 viewBox="0 0 65.6 94" style="enable-background:new 0 0 65.6 94;" xml:space="preserve">
<style type="text/css">
	.st0{fill:#DFB66A;}
</style>
<g>
	<path class="st0" d="M35.1,94L35.1,94c-3.5,0-6.3-2.9-6.3-6.3V11.6c0-3.5,2.9-6.3,6.3-6.3h0c3.5,0,6.3,2.9,6.3,6.3v76.1
		C41.4,91.1,38.6,94,35.1,94z"/>
	<path class="st0" d="M38.2,71.1L38.2,71.1c-1.7,3-5.6,4.1-8.7,2.3l-11.6-6.7c-3-1.7-4.1-5.6-2.3-8.7l0,0c1.7-3,5.6-4.1,8.7-2.3
		l11.6,6.7C38.9,64.1,39.9,68,38.2,71.1z"/>
	<path class="st0" d="M34.2,54.6L34.2,54.6c1.7,3,5.6,4.1,8.7,2.3l19.5-11.3c3-1.7,4.1-5.6,2.3-8.7l0,0c-1.7-3-5.6-4.1-8.7-2.3
		L36.6,46C33.5,47.7,32.5,51.6,34.2,54.6z"/>
	<polygon class="st0" points="33.6,19.5 29.5,19.8 24.8,20 29.5,22.7 31.3,23.7 	"/>
	<path class="st0" d="M24,19.5c3.8-6.7-0.1-14.6-4.8-17.1c-1.3-0.7-4.3-1.8-7.5-1.1C9.3,1.8,8,3.4,6.2,2.9C4.2,2.3,4.1,0,3.1,0
		C1.4,0.1-1.2,7.4,0.6,14.6c0.6,2.3,1.9,7.2,6.3,9.7C12.3,27.2,20.4,25.9,24,19.5z"/>
</g>
</svg>
